<svg width="247" height="124" viewBox="0 0 247 124" fill="none" xmlns="http://www.w3.org/2000/svg">
<path d="M225.849 82.1709H70.2488C59.1029 82.1709 50.0674 91.221 50.0674 102.385V103.59C50.0674 114.754 59.1029 123.804 70.2488 123.804H225.849C236.995 123.804 246.031 114.754 246.031 103.59V102.385C246.031 91.221 236.995 82.1709 225.849 82.1709Z" fill="#00A4FF"/>
<path d="M128.039 0.0559729C88.4288 1.54952 56.0091 33.7058 54.0915 73.4501C53.692 81.7798 54.6109 89.839 56.6483 97.427C60.883 113.164 75.2452 124 91.495 124H192.32C202.157 111.019 208 94.8408 208 77.2792C208 33.6156 171.915 -1.59795 128.039 0.0559729Z" fill="#00A4FF"/>
<path d="M43.5244 51.5622C20.2391 52.428 1.18107 71.0673 0.0537906 94.1051C-0.181059 98.9335 0.359093 103.605 1.55683 108.003C4.04623 117.125 12.4891 123.406 22.0416 123.406H81.3117C87.0948 115.882 90.5295 106.504 90.5295 96.3246C90.5295 71.0151 69.3167 50.6035 43.5244 51.5622Z" fill="#00A4FF"/>
</svg>
