<svg width="1714" height="1012" viewBox="0 0 1714 1012" fill="none" xmlns="http://www.w3.org/2000/svg">
<path d="M1883.88 469.848L1682.59 357.149C1679.75 355.564 1676.64 354.551 1673.41 354.171C1670.19 353.79 1666.92 354.048 1663.8 354.93C1660.67 355.812 1657.75 357.301 1655.2 359.311C1652.66 361.322 1650.53 363.815 1648.94 366.648L1634.16 393.054C1637.13 405.647 1639.36 418.694 1643.08 428.825C1661.19 478.018 1689.66 522.738 1726.58 559.948L1807.94 605.493C1813.66 608.698 1820.41 609.502 1826.72 607.726C1833.03 605.95 1838.38 601.741 1841.59 596.024L1893.37 503.514C1894.96 500.68 1895.98 497.562 1896.36 494.336C1896.75 491.11 1896.49 487.84 1895.61 484.713C1894.73 481.586 1893.24 478.664 1891.23 476.113C1889.21 473.563 1886.72 471.433 1883.88 469.848Z" fill="#EAE7E4"/>
<path d="M1634.16 393.054L1597.15 459.158C1593.95 464.88 1593.15 471.64 1594.93 477.951C1596.71 484.262 1600.93 489.607 1606.65 492.809L1726.58 559.955C1689.66 522.746 1661.18 478.026 1643.07 428.832C1639.35 418.694 1637.11 405.647 1634.16 393.054Z" fill="#EAE7E4"/>
<path d="M155.126 739.558C157.935 738.161 160.403 736.165 162.354 733.71C164.306 731.256 165.693 728.402 166.419 725.353C167.145 722.303 167.191 719.132 166.555 716.062C165.918 712.993 164.614 710.1 162.735 707.59C122.587 653.29 48.1021 633.786 -14.6176 664.707C-77.3373 695.627 -107.188 766.544 -88.4733 831.408C-87.6229 834.425 -86.1191 837.219 -84.0682 839.591C-82.0173 841.963 -79.4696 843.856 -76.6052 845.136C-73.7409 846.416 -70.63 847.051 -67.4927 846.997C-64.3554 846.942 -61.2684 846.2 -58.4502 844.822L155.126 739.558Z" fill="#EAE7E4"/>
<path d="M603.244 937.17C389.888 937.316 177.396 912.069 -29 862.05V1049H1854V625C1486.66 823.458 1059.31 937.17 603.244 937.17Z" fill="white"/>
<path d="M173.126 678.558C175.935 677.161 178.403 675.165 180.354 672.71C182.306 670.256 183.693 667.402 184.419 664.353C185.145 661.303 185.191 658.132 184.555 655.062C183.918 651.993 182.614 649.1 180.735 646.59C140.587 592.29 66.1021 572.786 3.38242 603.707C-59.3373 634.627 -89.1881 705.544 -70.4733 770.408C-69.6229 773.425 -68.1191 776.219 -66.0682 778.591C-64.0173 780.963 -61.4696 782.856 -58.6052 784.136C-55.7409 785.416 -52.63 786.051 -49.4927 785.997C-46.3554 785.942 -43.2684 785.2 -40.4502 783.822L173.126 678.558Z" fill="#32AAFF"/>
<path d="M1863.88 406.848L1662.59 294.149C1659.75 292.564 1656.64 291.551 1653.41 291.171C1650.19 290.79 1646.92 291.048 1643.8 291.93C1640.67 292.812 1637.75 294.301 1635.2 296.311C1632.66 298.322 1630.53 300.815 1628.94 303.648L1614.16 330.054C1617.13 342.647 1619.36 355.694 1623.08 365.825C1641.19 415.018 1669.66 459.738 1706.58 496.948L1787.94 542.493C1793.66 545.698 1800.41 546.502 1806.72 544.726C1813.03 542.95 1818.38 538.741 1821.59 533.024L1873.37 440.514C1874.96 437.68 1875.98 434.562 1876.36 431.336C1876.75 428.11 1876.49 424.84 1875.61 421.713C1874.73 418.586 1873.24 415.664 1871.23 413.113C1869.21 410.563 1866.72 408.433 1863.88 406.848Z" fill="#FFCE00"/>
<path d="M1614.16 330.054L1577.15 396.158C1573.95 401.88 1573.15 408.64 1574.93 414.951C1576.71 421.262 1580.93 426.607 1586.65 429.809L1706.58 496.955C1669.66 459.746 1641.18 415.026 1623.07 365.832C1619.35 355.694 1617.11 342.647 1614.16 330.054Z" fill="#FFCE00"/>
<path fill-rule="evenodd" clip-rule="evenodd" d="M507.043 935.514C539.079 936.639 571.152 937.192 603.244 937.17C647.682 937.17 691.847 936.09 735.711 933.958C735.903 934.797 736 935.645 736 936.5C736 956.106 684.737 972 621.5 972C558.263 972 507 956.106 507 936.5C507 936.17 507.014 935.842 507.043 935.514Z" fill="#EAE7E4"/>
<path d="M586.971 946.3C653.456 971.146 727.494 937.39 752.34 870.905C777.185 804.419 743.429 730.381 676.944 705.536C610.459 680.691 536.421 714.447 511.576 780.932C486.73 847.417 520.486 921.455 586.971 946.3Z" fill="#FF7E1D"/>
<path d="M672.762 729.301C670.761 731.9 669.87 735.186 670.282 738.44C670.695 741.695 672.378 744.654 674.964 746.672C677.551 748.691 680.83 749.604 684.088 749.213C687.345 748.822 690.315 747.158 692.35 744.585" stroke="#423D46" stroke-width="6" stroke-linecap="round" stroke-linejoin="round"/>
<path d="M701.87 752.026C699.869 754.626 698.978 757.911 699.39 761.166C699.803 764.421 701.486 767.38 704.072 769.398C706.659 771.416 709.938 772.329 713.196 771.938C716.453 771.547 719.423 769.884 721.458 767.311" stroke="#423D46" stroke-width="6" stroke-linecap="round" stroke-linejoin="round"/>
<path d="M653.781 714.48C649.824 725.928 649.543 738.327 652.978 749.943C656.414 761.559 663.393 771.811 672.941 779.265C682.489 786.719 694.128 791.002 706.231 791.517C718.333 792.031 730.293 788.75 740.439 782.133" stroke="#423D46" stroke-width="6" stroke-linecap="round" stroke-linejoin="round"/>
<path d="M530.658 746.835C520.273 760.138 512.609 775.356 508.105 791.621C503.601 807.885 502.344 824.878 504.407 841.628C506.47 858.378 511.812 874.558 520.128 889.243C528.444 903.929 539.571 916.833 552.874 927.218L553.057 927.359C531.041 866.818 526.411 800.002 539.295 736.855C536.248 740.033 533.366 743.364 530.658 746.835Z" fill="#FF6700"/>
</svg>
