<svg width="178" height="178" viewBox="0 0 178 178" fill="none" xmlns="http://www.w3.org/2000/svg">
<g id="Bite sized meditations 1" clip-path="url(#clip0_1436_29353)">
<g id="Group">
<g id="Clip path group">
<mask id="mask0_1436_29353" style="mask-type:luminance" maskUnits="userSpaceOnUse" x="0" y="0" width="179" height="178">
<g id="SVGID_00000122680623593298716140000016902540583407667086_">
<path id="Vector" d="M89.002 178C138.155 178 178.002 138.153 178.002 89C178.002 39.8467 138.155 0 89.002 0C39.8486 0 0.00195312 39.8467 0.00195312 89C0.00195312 138.153 39.8486 178 89.002 178Z" fill="white"/>
</g>
</mask>
<g mask="url(#mask0_1436_29353)">
<g id="Group_2">
<g id="Group_3">
<path id="Vector_2" d="M21.9092 88.9988C21.9092 73.0468 34.8407 60.1152 50.7928 60.1152H127.218C143.17 60.1152 156.101 73.0468 156.101 88.9988C156.101 104.951 143.17 117.882 127.218 117.882H50.7823C34.8407 117.872 21.9092 104.951 21.9092 88.9988Z" fill="#FFA1CC"/>
<g id="Group_4">
<path id="Vector_3" d="M50.7811 146.181C43.0726 146.181 35.5842 144.66 28.5154 141.671C21.6983 138.787 15.5839 134.665 10.3504 129.432C5.11698 124.198 0.984763 118.084 -1.8994 111.267C-4.88844 104.198 -6.40918 96.7094 -6.40918 89.0009C-6.40918 81.2923 -4.88844 73.804 -1.8994 66.7351C0.984763 59.918 5.10649 53.8036 10.3504 48.5597C15.5944 43.3157 21.7088 39.2045 28.5154 36.3203C35.5842 33.3313 43.0726 31.8105 50.7811 31.8105H127.206C134.915 31.8105 142.403 33.3313 149.472 36.3203C156.289 39.2045 162.403 43.3262 167.637 48.5597C172.87 53.7931 177.003 59.918 179.876 66.7246C182.865 73.7935 184.386 81.2818 184.386 88.9904C184.386 96.699 182.865 104.187 179.876 111.256C176.992 118.073 172.87 124.188 167.637 129.421C162.393 134.665 156.279 138.787 149.472 141.66C142.403 144.649 134.915 146.17 127.206 146.17H50.7811V146.181Z" fill="#FFA1CC"/>
<path id="Vector_4" d="M88.9994 184.398C77.9661 184.398 67.2475 182.877 57.1268 179.888C47.373 177.004 38.6262 172.882 31.1169 167.649C23.618 162.405 17.7134 156.29 13.5916 149.484C9.31259 142.415 7.1416 134.926 7.1416 127.218V50.7824C7.1416 43.0738 9.31259 35.5854 13.5916 28.5166C17.7134 21.6995 23.6075 15.5851 31.1169 10.3517C38.6157 5.10772 47.373 0.985994 57.1268 -1.88768C67.2475 -4.87672 77.9661 -6.39746 88.9994 -6.39746C100.033 -6.39746 110.751 -4.87672 120.872 -1.88768C130.626 0.996482 139.373 5.11821 146.882 10.3517C154.391 15.5851 160.285 21.71 164.407 28.5166C168.686 35.5854 170.857 43.0738 170.857 50.7824V127.207C170.857 134.916 168.686 142.404 164.407 149.473C160.285 156.29 154.391 162.405 146.882 167.638C139.383 172.882 130.626 177.004 120.872 179.877C110.751 182.877 100.033 184.398 88.9994 184.398Z" fill="#FFA1CC"/>
</g>
<path id="Vector_5" d="M88.9998 21.9102C104.952 21.9102 117.883 34.8417 117.883 50.7937V127.219C117.883 143.171 104.952 156.102 88.9998 156.102C73.0477 156.102 60.1162 143.171 60.1162 127.219V50.7832C60.1162 34.8417 73.0477 21.9102 88.9998 21.9102Z" fill="#FFA1CC"/>
</g>
<g id="Group_5">
<path id="Vector_6" d="M60.5243 127.973C54.7769 127.973 49.1974 126.934 43.9325 124.9C38.8564 122.938 34.3046 120.128 30.3927 116.551C26.4912 112.975 23.4182 108.811 21.2682 104.165C19.0448 99.3513 17.9121 94.2437 17.9121 88.9893C17.9121 83.7348 19.0448 78.6272 21.2682 73.8133C23.4182 69.1672 26.4807 65.0035 30.3927 61.4271C34.2941 57.8508 38.8564 55.0505 43.9325 53.0788C49.1974 51.0442 54.7874 50.0059 60.5243 50.0059H117.473C123.221 50.0059 128.8 51.0442 134.065 53.0788C139.141 55.04 143.693 57.8508 147.605 61.4271C151.507 65.0035 154.579 69.1672 156.729 73.8133C158.953 78.6272 160.086 83.7348 160.086 88.9893C160.086 94.2437 158.953 99.3513 156.729 104.165C154.579 108.811 151.517 112.975 147.605 116.551C143.704 120.128 139.141 122.928 134.065 124.9C128.8 126.934 123.21 127.973 117.473 127.973H60.5243Z" fill="#FF7300"/>
<path id="Vector_7" d="M88.9987 159.636C83.2933 159.636 77.7452 158.514 72.5118 156.301C67.4671 154.172 62.9363 151.12 59.0558 147.239C55.1753 143.359 52.1234 138.828 49.9943 133.783C47.7814 128.55 46.6592 123.002 46.6592 117.296V60.7038C46.6592 54.9984 47.7814 49.4503 49.9943 44.2168C52.1234 39.1722 55.1753 34.6414 59.0558 30.7609C62.9363 26.8804 67.4671 23.8284 72.5118 21.6994C77.7452 19.4865 83.2933 18.3643 88.9987 18.3643C94.7041 18.3643 100.252 19.4865 105.486 21.6994C110.53 23.8284 115.061 26.8804 118.942 30.7609C122.822 34.6414 125.874 39.1722 128.003 44.2168C130.216 49.4503 131.338 54.9984 131.338 60.7038V117.296C131.338 123.002 130.216 128.55 128.003 133.783C125.874 138.828 122.822 143.359 118.942 147.239C115.061 151.12 110.53 154.172 105.486 156.301C100.252 158.514 94.7041 159.636 88.9987 159.636Z" fill="#FF7300"/>
</g>
<g id="Group_6">
<path id="Vector_8" d="M89.0013 43.2725C102.164 43.2725 112.83 53.9386 112.83 67.1009V110.898C112.83 124.06 102.164 134.727 89.0013 134.727C75.839 134.727 65.1729 124.06 65.1729 110.898V67.1009C65.1729 53.9386 75.839 43.2725 89.0013 43.2725Z" fill="#FFCE00"/>
<path id="Vector_9" d="M43.2744 89.0003C43.2744 75.838 53.9406 65.1719 67.1028 65.1719H110.9C124.062 65.1719 134.729 75.838 134.729 89.0003C134.729 102.163 124.062 112.829 110.9 112.829H67.1028C53.9406 112.829 43.2744 102.152 43.2744 89.0003Z" fill="#FFCE00"/>
</g>
<g id="Group_7">
<path id="Vector_10" d="M82.824 83.903C80.5272 83.903 78.4715 82.4452 77.7059 80.2847C77.5067 79.7183 77.8003 79.0995 78.3667 78.9003C78.933 78.701 79.5518 78.9947 79.7511 79.561C80.2125 80.8615 81.4501 81.732 82.8345 81.732C84.2189 81.732 85.4565 80.8615 85.9179 79.561C86.1172 78.9947 86.736 78.701 87.3023 78.9003C87.8687 79.0995 88.1623 79.7183 87.9631 80.2847C87.1765 82.4556 85.1208 83.903 82.824 83.903Z" fill="#141313"/>
<path id="Vector_11" d="M95.1258 83.903C92.8289 83.903 90.7733 82.4452 90.0077 80.2847C89.8084 79.7183 90.1021 79.0995 90.6684 78.9003C91.2348 78.701 91.8535 78.9947 92.0528 79.561C92.5143 80.8615 93.7518 81.732 95.1362 81.732C96.5206 81.732 97.7582 80.8615 98.2197 79.561C98.4189 78.9947 99.0377 78.701 99.6041 78.9003C100.17 79.0995 100.464 79.7183 100.265 80.2847C99.4782 82.4556 97.4226 83.903 95.1258 83.903Z" fill="#141313"/>
<path id="Vector_12" d="M89.0009 91.6219C81.7224 91.6219 74.7584 88.9055 69.4096 83.9867C68.9691 83.5777 68.9377 82.896 69.3467 82.4555C69.7557 82.015 70.4374 81.9836 70.8779 82.3926C75.8282 86.9443 82.2677 89.4614 89.0009 89.4614C95.7341 89.4614 102.174 86.9548 107.134 82.3926C107.575 81.9836 108.257 82.015 108.666 82.4555C109.075 82.896 109.043 83.5777 108.603 83.9867C103.233 88.916 96.2795 91.6219 89.0009 91.6219Z" fill="#141313"/>
</g>
</g>
</g>
</g>
<g id="Clip path group_2">
<mask id="mask1_1436_29353" style="mask-type:luminance" maskUnits="userSpaceOnUse" x="0" y="0" width="179" height="178">
<g id="SVGID_00000122680623593298716140000016902540583407667086__2">
<path id="Vector_13" d="M89.002 178C138.155 178 178.002 138.153 178.002 89C178.002 39.8467 138.155 0 89.002 0C39.8486 0 0.00195312 39.8467 0.00195312 89C0.00195312 138.153 39.8486 178 89.002 178Z" fill="white"/>
</g>
</mask>
<g mask="url(#mask1_1436_29353)">
<g id="Group_8">
<path id="Vector_14" d="M152.968 29.6907L147.461 44.94C147.021 46.1566 145.343 46.2825 144.724 45.1393L137.068 30.8443C136.869 30.4668 136.837 30.0263 136.984 29.6277L142.49 14.3784C142.931 13.1618 144.609 13.0359 145.227 14.1791L152.884 28.4741C153.083 28.8412 153.114 29.2921 152.968 29.6907Z" fill="#FF76B8"/>
<path id="Vector_15" d="M145.007 21.6676L160.256 27.1737C161.473 27.6142 161.599 29.2923 160.456 29.9111L146.161 37.5672C145.783 37.7665 145.343 37.7979 144.944 37.6511L129.695 32.145C128.478 31.7045 128.352 30.0264 129.496 29.4076L143.79 21.7515C144.168 21.5522 144.609 21.5208 145.007 21.6676Z" fill="#FF76B8"/>
</g>
</g>
</g>
</g>
<g id="Group_9">
<path id="Vector_16" d="M155.104 29.2391L148.297 43.8907C147.752 45.0653 146.074 45.0339 145.57 43.8487L139.236 28.9979C139.068 28.6099 139.078 28.1694 139.257 27.7813L146.063 13.1298C146.609 11.9551 148.287 11.9866 148.79 13.1717L155.125 28.0225C155.293 28.4106 155.282 28.8511 155.104 29.2391Z" fill="#FFCE00"/>
<path id="Vector_17" d="M147.909 20.5761L162.561 27.3827C163.735 27.9281 163.704 29.6061 162.519 30.1096L147.668 36.4442C147.28 36.612 146.839 36.6015 146.451 36.4233L131.8 29.6166C130.625 29.0713 130.657 27.3932 131.842 26.8898L146.692 20.5551C147.081 20.3873 147.531 20.3978 147.909 20.5761Z" fill="#FFCE00"/>
</g>
</g>
<defs>
<clipPath id="clip0_1436_29353">
<rect width="178" height="178" fill="white"/>
</clipPath>
</defs>
</svg>
