<svg width="1816" height="1012" viewBox="0 0 1816 1012" fill="none" xmlns="http://www.w3.org/2000/svg">
<g clip-path="url(#clip0_2158_3524)">
<path d="M0 0H1816V1012H0V0Z" fill="url(#paint0_linear_2158_3524)"/>
<path d="M504.327 1106.09C613.128 1106.09 701.328 1017.89 701.328 909.093C701.328 800.292 613.128 712.091 504.327 712.091C395.526 712.091 307.325 800.292 307.325 909.093C307.325 1017.89 395.526 1106.09 504.327 1106.09Z" fill="#FFCB00"/>
<path d="M487.622 746.446C490.897 752.226 497.517 755.338 504.09 754.195C510.663 753.053 515.841 747.883 516.973 741.337C517.081 740.705 516.94 740.067 516.568 739.543C516.199 739.019 515.647 738.669 515.015 738.561C514.382 738.453 513.745 738.595 513.22 738.966C512.696 739.335 512.347 739.887 512.239 740.522C511.451 745.073 507.848 748.665 503.269 749.464C498.69 750.262 494.084 748.096 491.807 744.08C491.294 743.174 490.273 742.73 489.302 742.899C489.039 742.946 488.778 743.035 488.531 743.176C487.377 743.831 486.973 745.301 487.627 746.452L487.622 746.446Z" fill="black"/>
<path d="M450.069 751.114C449.897 751.733 449.975 752.382 450.291 752.939C453.572 758.749 460.195 761.886 466.771 760.741C473.347 759.595 478.522 754.409 479.645 747.83C479.753 747.198 479.609 746.56 479.238 746.036C478.866 745.512 478.314 745.165 477.682 745.057C477.049 744.949 476.411 745.093 475.887 745.465C475.363 745.836 475.016 746.388 474.908 747.021C474.126 751.599 470.523 755.208 465.947 756.006C461.371 756.802 456.762 754.623 454.476 750.579C454.16 750.019 453.647 749.616 453.029 749.445C452.679 749.347 452.321 749.331 451.975 749.392C451.708 749.439 451.448 749.53 451.204 749.669C450.643 749.985 450.241 750.498 450.069 751.117V751.114Z" fill="black"/>
<path d="M451.512 773.894C451.157 773.791 450.79 773.772 450.435 773.833C450.174 773.877 449.922 773.965 449.683 774.098C449.12 774.407 448.715 774.916 448.535 775.529C448.357 776.143 448.429 776.789 448.74 777.35C449.051 777.911 449.561 778.314 450.177 778.494C462.898 782.143 476.565 782.87 489.696 780.593C491.475 780.284 493.267 779.917 495.023 779.502C506.29 776.83 516.73 772.092 526.058 765.42C526.579 765.047 526.923 764.494 527.029 763.862C527.132 763.232 526.984 762.596 526.61 762.077C525.836 761.005 524.332 760.759 523.256 761.53C514.439 767.835 504.564 772.316 493.91 774.841C479.916 778.162 465.253 777.833 451.512 773.891V773.894Z" fill="black"/>
<path d="M538.836 727.151C637.882 748.988 704.196 839.2 699.111 937.245C713.749 836.059 647.959 739.227 546.519 716.861C481.182 702.456 416.272 722.302 370.524 764.427C416.73 729.121 477.604 713.647 538.836 727.148V727.151Z" fill="#FFDF13"/>
<path d="M342.368 794.162C341.734 792.713 339.748 792.54 338.87 793.855C336.12 797.986 332.24 801.24 327.695 803.233C326.247 803.867 326.074 805.853 327.389 806.73C331.52 809.481 334.773 813.36 336.767 817.905C337.401 819.354 339.387 819.527 340.264 818.212C343.015 814.081 346.894 810.827 351.439 808.834C352.888 808.2 353.061 806.214 351.746 805.337C347.615 802.586 344.361 798.707 342.368 794.162Z" fill="white"/>
<path d="M712.226 759.972C713.206 756.668 710.828 753.049 706.916 751.889C703.003 750.728 699.036 752.466 698.057 755.77C697.077 759.073 699.454 762.693 703.367 763.853C707.28 765.014 711.246 763.276 712.226 759.972Z" fill="white"/>
<path d="M290.989 751.492C292.645 755.471 296.538 757.876 300.614 757.858V757.831C300.629 757.831 300.645 757.831 300.661 757.831C303.052 757.941 305.431 757.444 307.626 756.488C328.061 747.568 349.306 740.136 371.232 734.331C378.061 732.524 383.012 726.478 383.229 719.416C383.235 719.237 383.237 719.062 383.237 718.884C383.271 708.602 374.978 700.065 364.699 699.813C360.772 699.716 357.11 700.817 354.04 702.768C353.741 702.768 353.442 702.768 353.144 702.771C347.679 693.94 337.581 688.01 326.023 688.01C308.658 688.01 294.578 701.393 294.578 717.901C294.578 724.749 297.001 731.059 301.077 736.099L296.566 737.975C291.317 740.157 288.807 746.237 290.989 751.487V751.492Z" fill="white"/>
<path d="M691.955 728.854L691.881 728.696C692.28 727.127 692.463 725.482 692.397 723.795C691.999 713.618 682.758 705.718 671.753 706.147C664.206 706.443 657.79 710.58 654.634 716.434C654.435 716.45 654.238 716.466 654.042 716.487C652.664 715.965 651.142 715.732 649.552 715.866C644.669 716.282 640.729 720.217 640.308 725.1C640.294 725.244 640.287 725.388 640.279 725.532C640.106 729.338 642.689 732.723 646.359 733.744C659.76 737.477 672.955 742.101 685.843 747.612C687.874 748.479 690.192 748.453 692.154 747.445C692.177 747.432 692.204 747.418 692.227 747.408C693.754 746.769 695.049 745.742 695.929 744.16C697.107 742.481 697.804 740.44 697.812 738.232C697.825 734.106 695.431 730.538 691.952 728.848L691.955 728.854Z" fill="white"/>
<path d="M291.364 772.027C288.747 767.254 282.759 765.507 277.983 768.124C277.394 768.449 276.807 768.781 276.226 769.119C273.127 766.838 269.14 765.774 265.051 766.494C257.121 767.891 251.827 775.451 253.223 783.38C254.62 791.309 262.18 796.604 270.109 795.207C272.173 794.843 274.028 793.384 275.835 792.352C279.757 790.115 283.503 787.571 287.458 785.408C292.231 782.791 293.979 776.8 291.362 772.027H291.364Z" fill="white"/>
<mask id="mask0_2158_3524" style="mask-type:alpha" maskUnits="userSpaceOnUse" x="307" y="712" width="395" height="395">
<path d="M504.375 1106.19C613.176 1106.19 701.377 1017.99 701.377 909.193C701.377 800.392 613.176 712.192 504.375 712.192C395.574 712.192 307.374 800.392 307.374 909.193C307.374 1017.99 395.574 1106.19 504.375 1106.19Z" fill="#FFCB00"/>
</mask>
<g mask="url(#mask0_2158_3524)">
<path d="M344.565 1009.92C372.405 1009.92 394.974 987.356 394.974 959.517C394.974 931.677 372.405 909.108 344.565 909.108C316.726 909.108 294.157 931.677 294.157 959.517C294.157 987.356 316.726 1009.92 344.565 1009.92Z" fill="#FFB300"/>
</g>
<path d="M358.02 996.915C383.174 984.984 393.894 954.922 381.963 929.768C370.033 904.614 339.97 893.894 314.817 905.824C289.663 917.755 278.943 947.817 290.873 972.971C302.803 998.125 332.866 1008.84 358.02 996.915Z" fill="#00A4FF"/>
<path d="M334.085 962.962C332.005 962.795 330.054 962.006 328.446 960.688C326.875 959.4 325.734 957.697 325.146 955.761C324.845 954.77 325.403 953.723 326.396 953.42C327.387 953.118 328.434 953.677 328.736 954.667C329.514 957.218 331.733 959.006 334.39 959.222C337.046 959.438 339.525 958.031 340.703 955.637C341.16 954.706 342.284 954.324 343.214 954.782C344.144 955.239 344.526 956.363 344.069 957.293C343.176 959.108 341.776 960.607 340.021 961.625C338.219 962.668 336.168 963.131 334.088 962.963L334.085 962.962Z" fill="black"/>
<path d="M349.055 952.001C346.42 951.787 343.947 950.791 341.91 949.119C339.922 947.488 338.475 945.33 337.728 942.875C337.426 941.884 337.985 940.836 338.975 940.535C339.966 940.233 341.013 940.791 341.315 941.782C342.42 945.413 345.577 947.957 349.357 948.26C353.138 948.566 356.662 946.564 358.337 943.158C358.794 942.227 359.918 941.845 360.848 942.303C361.778 942.76 362.16 943.884 361.703 944.814C360.571 947.116 358.795 949.014 356.571 950.304C354.29 951.626 351.69 952.213 349.054 951.999L349.055 952.001Z" fill="black"/>
<path d="M321.074 949.738C318.438 949.524 315.966 948.528 313.929 946.856C311.94 945.224 310.493 943.066 309.746 940.611C309.445 939.621 310.003 938.573 310.994 938.271C311.984 937.97 313.032 938.528 313.334 939.519C314.44 943.148 317.596 945.693 321.375 945.997C325.156 946.303 328.68 944.301 330.355 940.894C330.813 939.964 331.936 939.582 332.866 940.04C333.797 940.497 334.179 941.621 333.721 942.551C332.589 944.853 330.814 946.751 328.59 948.04C326.309 949.363 323.708 949.95 321.073 949.736L321.074 949.738Z" fill="black"/>
</g>
<defs>
<linearGradient id="paint0_linear_2158_3524" x1="908" y1="9.7375e-07" x2="908" y2="1165" gradientUnits="userSpaceOnUse">
<stop offset="0.131551" stop-color="#0040EA"/>
<stop offset="0.404587" stop-color="#1672EE"/>
<stop offset="0.709781" stop-color="#34B6F4"/>
<stop offset="1" stop-color="#FCFFCA"/>
</linearGradient>
<clipPath id="clip0_2158_3524">
<rect width="1816" height="1012" fill="white"/>
</clipPath>
</defs>
</svg>
