<svg width="176" height="146" viewBox="0 0 176 146" fill="none" xmlns="http://www.w3.org/2000/svg">
<g clip-path="url(#clip0_15200_66324)">
<mask id="mask0_15200_66324" style="mask-type:alpha" maskUnits="userSpaceOnUse" x="0" y="0" width="176" height="146">
<rect width="176" height="146" fill="#D9D9D9"/>
</mask>
<g mask="url(#mask0_15200_66324)">
<g filter="url(#filter0_f_15200_66324)">
<path d="M99.5391 83.2698C99.5391 62.011 116.655 44.7773 137.77 44.7773C158.884 44.7773 176.001 62.011 176.001 83.2698C176.001 104.529 158.884 121.762 137.77 121.762C116.655 121.762 99.5391 104.529 99.5391 83.2698Z" fill="url(#paint0_linear_15200_66324)"/>
<path d="M47.1467 75.3672H132.249C145.031 75.3672 155.394 85.8003 155.394 98.6701V98.6967C155.394 111.567 145.031 122 132.249 122H47.1467C34.3642 122 24.002 111.567 24.002 98.6967V98.6701C24.002 85.8003 34.3642 75.3672 47.1467 75.3672Z" fill="url(#paint1_linear_15200_66324)"/>
<path d="M86.912 116.573C61.5221 116.573 40.9395 95.8502 40.9395 70.2867C40.9395 44.7233 61.5221 24 86.912 24C112.302 24 132.885 44.7233 132.885 70.2867C132.885 95.8502 112.302 116.573 86.912 116.573Z" fill="url(#paint2_linear_15200_66324)"/>
</g>
</g>
</g>
<defs>
<filter id="filter0_f_15200_66324" x="0.00195312" y="0" width="200" height="146" filterUnits="userSpaceOnUse" color-interpolation-filters="sRGB">
<feFlood flood-opacity="0" result="BackgroundImageFix"/>
<feBlend mode="normal" in="SourceGraphic" in2="BackgroundImageFix" result="shape"/>
<feGaussianBlur stdDeviation="12" result="effect1_foregroundBlur_15200_66324"/>
</filter>
<linearGradient id="paint0_linear_15200_66324" x1="137.162" y1="129.796" x2="137.966" y2="70.0756" gradientUnits="userSpaceOnUse">
<stop stop-color="#FFA1CC"/>
<stop offset="0.5" stop-color="#FCC8DE"/>
<stop offset="1" stop-color="#F9F4F2"/>
</linearGradient>
<linearGradient id="paint1_linear_15200_66324" x1="89.2882" y1="129.156" x2="90.0917" y2="69.4352" gradientUnits="userSpaceOnUse">
<stop stop-color="#FFA1CC"/>
<stop offset="0.5" stop-color="#FCC8DE"/>
<stop offset="1" stop-color="#F9F4F2"/>
</linearGradient>
<linearGradient id="paint2_linear_15200_66324" x1="86.1457" y1="129.129" x2="86.9224" y2="69.409" gradientUnits="userSpaceOnUse">
<stop stop-color="#FFA1CC"/>
<stop offset="0.5" stop-color="#FCC8DE"/>
<stop offset="1" stop-color="#F9F4F2"/>
</linearGradient>
<clipPath id="clip0_15200_66324">
<rect width="176" height="146" fill="white"/>
</clipPath>
</defs>
</svg>
