<svg width="96" height="96" viewBox="0 0 96 96" fill="none" xmlns="http://www.w3.org/2000/svg">
<g clip-path="url(#clip0_15214_53766)">
<path d="M49.3969 61.7388L47.3223 72.8134C46.8627 75.2691 44.5038 76.884 42.0481 76.4243C39.0239 75.9162 37.3969 72.3295 38.9634 69.7166L44.6006 59.9666C46.0764 57.4626 49.911 58.9142 49.3909 61.7388H49.3969Z" fill="#00A4FF"/>
<path d="M38.8284 88.0005C41.0765 88.0005 42.899 86.1781 42.899 83.9299C42.899 81.6818 41.0765 79.8594 38.8284 79.8594C36.5803 79.8594 34.7578 81.6818 34.7578 83.9299C34.7578 86.1781 36.5803 88.0005 38.8284 88.0005Z" fill="#00A4FF"/>
<path d="M47.2449 64.1694C60.5465 64.1694 71.3296 53.3863 71.3296 40.0847C71.3296 26.7831 60.5465 16 47.2449 16C33.9433 16 23.1602 26.7831 23.1602 40.0847C23.1602 53.3863 33.9433 64.1694 47.2449 64.1694Z" fill="url(#paint0_linear_15214_53766)"/>
<path d="M70.085 64.5685C80.5272 64.5685 88.9923 56.1034 88.9923 45.6612C88.9923 35.219 80.5272 26.7539 70.085 26.7539C59.6428 26.7539 51.1777 35.219 51.1777 45.6612C51.1777 56.1034 59.6428 64.5685 70.085 64.5685Z" fill="url(#paint1_linear_15214_53766)"/>
<path d="M51.3078 42.4258H24.3319C18.1555 42.4258 13.1484 47.4314 13.1484 53.6062C13.1484 59.781 18.1555 64.7867 24.3319 64.7867H51.3078C57.4842 64.7867 62.4913 59.781 62.4913 53.6062C62.4913 47.4314 57.4842 42.4258 51.3078 42.4258Z" fill="url(#paint2_linear_15214_53766)"/>
<path d="M70.581 46.5312H51.8673C46.8265 46.5312 42.7402 50.6176 42.7402 55.6583C42.7402 60.699 46.8265 64.7853 51.8673 64.7853H70.581C75.6217 64.7853 79.708 60.699 79.708 55.6583C79.708 50.6176 75.6217 46.5312 70.581 46.5312Z" fill="url(#paint3_linear_15214_53766)"/>
<path d="M68.5167 64.9135L66.8171 77.7724C66.3151 81.5466 62.8494 84.2079 59.0752 83.7058C54.1094 83.1373 51.4179 77.2159 54.2001 73.103L61.2828 62.2401C63.6175 58.732 69.0429 60.7945 68.5167 64.9195V64.9135Z" fill="#00A4FF"/>
<g filter="url(#filter0_f_15214_53766)">
<path d="M34.9097 38.082H12.6093C9.22874 38.082 6.48828 40.8225 6.48828 44.203C6.48828 47.5835 9.22874 50.324 12.6093 50.324H34.9097C38.2902 50.324 41.0307 47.5835 41.0307 44.203C41.0307 40.8225 38.2902 38.082 34.9097 38.082Z" fill="#141313"/>
<path d="M23.3426 47.6032C29.3287 47.6032 34.1814 42.7506 34.1814 36.7645C34.1814 30.7784 29.3287 25.9258 23.3426 25.9258C17.3566 25.9258 12.5039 30.7784 12.5039 36.7645C12.5039 42.7506 17.3566 47.6032 23.3426 47.6032Z" fill="#141313"/>
</g>
</g>
<defs>
<filter id="filter0_f_15214_53766" x="1.89923" y="21.3367" width="43.7211" height="33.5765" filterUnits="userSpaceOnUse" color-interpolation-filters="sRGB">
<feFlood flood-opacity="0" result="BackgroundImageFix"/>
<feBlend mode="normal" in="SourceGraphic" in2="BackgroundImageFix" result="shape"/>
<feGaussianBlur stdDeviation="2.29452" result="effect1_foregroundBlur_15214_53766"/>
</filter>
<linearGradient id="paint0_linear_15214_53766" x1="47.2449" y1="4.50804" x2="47.2449" y2="90.7703" gradientUnits="userSpaceOnUse">
<stop stop-color="#141313"/>
<stop offset="1" stop-color="#63605D"/>
</linearGradient>
<linearGradient id="paint1_linear_15214_53766" x1="70.085" y1="4.91314" x2="70.085" y2="91.1754" gradientUnits="userSpaceOnUse">
<stop stop-color="#141313"/>
<stop offset="1" stop-color="#63605D"/>
</linearGradient>
<linearGradient id="paint2_linear_15214_53766" x1="37.8199" y1="4.50837" x2="37.8199" y2="90.7706" gradientUnits="userSpaceOnUse">
<stop stop-color="#141313"/>
<stop offset="1" stop-color="#63605D"/>
</linearGradient>
<linearGradient id="paint3_linear_15214_53766" x1="61.2241" y1="4.50697" x2="61.2241" y2="90.7692" gradientUnits="userSpaceOnUse">
<stop stop-color="#141313"/>
<stop offset="1" stop-color="#63605D"/>
</linearGradient>
<clipPath id="clip0_15214_53766">
<rect width="96" height="96" fill="white"/>
</clipPath>
</defs>
</svg>
