<svg width="1440" height="816" viewBox="0 0 1440 816" fill="none" xmlns="http://www.w3.org/2000/svg">
<g clip-path="url(#clip0_1_2)">
<rect width="1440" height="816" fill="white"/>
<rect x="-29.7262" width="1496.11" height="819.646" fill="#FFCE00"/>
<path d="M897.456 89.5959C898.32 87.0568 898.789 84.3456 898.789 81.5293C898.789 67.2099 886.717 55.6003 871.827 55.6003C866.539 55.6003 861.607 57.0658 857.444 59.594C848.577 49.2614 835.159 42.6754 820.139 42.6754C793.441 42.6754 771.798 63.488 771.798 89.1616C771.798 89.3815 771.804 89.6 771.807 89.8199C757.432 91.9902 746.343 104.03 746.343 118.438C746.343 134.371 759.899 147.406 776.467 147.406H894.674C911.242 147.406 924.798 134.371 924.798 118.438C924.798 103.407 912.732 90.9563 897.454 89.5959H897.456Z" fill="white"/>
<path d="M1598.06 490.614C1599.54 486.237 1600.35 481.563 1600.35 476.708C1600.35 452.024 1579.57 432.012 1553.95 432.012C1544.85 432.012 1536.36 434.538 1529.2 438.896C1513.94 421.085 1490.85 409.732 1465 409.732C1419.05 409.732 1381.81 445.609 1381.81 489.865C1381.81 490.244 1381.82 490.621 1381.82 491C1357.08 494.741 1338 515.495 1338 540.332C1338 567.797 1361.33 590.268 1389.84 590.268H1593.27C1621.78 590.268 1645.11 567.797 1645.11 540.332C1645.11 514.422 1624.34 492.959 1598.05 490.614H1598.06Z" fill="white"/>
<path d="M-54.395 779.021C-7.11658 779.021 31.2101 742.175 31.2101 696.724C31.2101 651.272 -7.11658 614.426 -54.395 614.426C-101.673 614.426 -140 651.272 -140 696.724C-140 742.175 -101.673 779.021 -54.395 779.021Z" fill="white"/>
<path d="M53.5891 839C95.1431 839 128.829 806.615 128.829 766.667C128.829 726.719 95.1431 694.334 53.5891 694.334C12.0351 694.334 -21.6511 726.719 -21.6511 766.667C-21.6511 806.615 12.0351 839 53.5891 839Z" fill="white"/>
<path d="M-24.5577 807.027C6.63508 807.027 31.9218 782.717 31.9218 752.729C31.9218 722.742 6.63508 698.432 -24.5577 698.432C-55.7505 698.432 -81.0372 722.742 -81.0372 752.729C-81.0372 782.717 -55.7505 807.027 -24.5577 807.027Z" fill="white"/>
<path d="M180.044 753.07H18.0691C-2.52987 753.07 -19.2286 769.124 -19.2286 788.927C-19.2286 808.73 -2.52987 824.783 18.0691 824.783H180.044C200.643 824.783 217.342 808.73 217.342 788.927C217.342 769.124 200.643 753.07 180.044 753.07Z" fill="white"/>
</g>
<defs>
<clipPath id="clip0_1_2">
<rect width="1440" height="816" fill="white"/>
</clipPath>
</defs>
</svg>
