<svg width="104" height="105" viewBox="0 0 104 105" fill="none" xmlns="http://www.w3.org/2000/svg">
<path d="M37.1866 52.7529C32.2394 55.2907 26.1959 54.4361 22.1488 50.6256C21.0825 49.6215 21.0316 47.9442 22.0357 46.8779C23.0398 45.8116 24.717 45.7607 25.7833 46.7648C28.2007 49.0408 31.8112 49.5509 34.7665 48.035C37.7217 46.519 39.4136 43.2889 38.9751 39.9977C38.7816 38.5459 39.8014 37.2133 41.2533 37.0198C42.7051 36.8263 44.0377 37.8461 44.2312 39.2979C44.9653 44.8079 42.1339 50.2151 37.1866 52.7529Z" fill="#141313"/>
<path d="M63.6358 39.1852C58.6886 41.723 52.6451 40.8685 48.598 37.058C47.5317 36.0539 47.4808 34.3766 48.4849 33.3103C49.489 32.244 51.1662 32.1931 52.2326 33.1972C54.6499 35.4732 58.2604 35.9833 61.2157 34.4673C64.1709 32.9514 65.8628 29.7213 65.4244 26.4301C65.2308 24.9783 66.2506 23.6457 67.7025 23.4522C69.1543 23.2587 70.4869 24.2785 70.6804 25.7303C71.4145 31.2403 68.5831 36.6474 63.6358 39.1852Z" fill="#141313"/>
<path d="M58.972 62.5349C43.3125 70.5679 25.3501 72.414 8.3933 67.7335C6.98156 67.3436 6.15361 65.8845 6.5435 64.4728C6.93339 63.061 8.3925 62.2331 9.80425 62.623C25.4748 66.9485 42.0771 65.2422 56.5519 57.817C71.0267 50.3918 82.0962 37.9032 87.7257 22.6514C88.2326 21.2773 89.7576 20.5745 91.1304 21.082C92.5044 21.5889 93.2073 23.1138 92.6997 24.4866C86.6095 40.9896 74.6315 54.502 58.972 62.5349Z" fill="#141313"/>
</svg>
