<svg width="200" height="200" viewBox="0 0 200 200" fill="none" xmlns="http://www.w3.org/2000/svg">
<g clip-path="url(#clip0_1687_12573)">
<mask id="mask0_1687_12573" style="mask-type:alpha" maskUnits="userSpaceOnUse" x="12" y="12" width="177" height="177">
<path d="M100.446 188.893C149.294 188.893 188.893 149.294 188.893 100.446C188.893 51.5988 149.294 12 100.446 12C51.5988 12 12 51.5988 12 100.446C12 149.294 51.5988 188.893 100.446 188.893Z" fill="#251561"/>
</mask>
<g mask="url(#mask0_1687_12573)">
<path d="M101.564 330.87C199.559 330.87 278.999 251.43 278.999 153.435C278.999 55.4404 199.559 -24 101.564 -24C3.56928 -24 -75.8711 55.4404 -75.8711 153.435C-75.8711 251.43 3.56928 330.87 101.564 330.87Z" fill="#01A652"/>
<path d="M100.593 250.632C156.825 250.632 202.409 205.048 202.409 148.816C202.409 92.5846 156.825 47 100.593 47C44.3619 47 -1.22266 92.5846 -1.22266 148.816C-1.22266 205.048 44.3619 250.632 100.593 250.632Z" fill="#00A452"/>
<path d="M100.209 225.671C142.624 225.671 177.008 191.287 177.008 148.872C177.008 106.457 142.624 72.0732 100.209 72.0732C57.7942 72.0732 23.4102 106.457 23.4102 148.872C23.4102 191.287 57.7942 225.671 100.209 225.671Z" fill="#FF7300"/>
<path d="M92.7688 103.767C89.4911 103.767 86.5517 101.693 85.4541 98.605C85.1645 97.7919 85.5905 96.898 86.4036 96.6084C87.2167 96.3188 88.1106 96.7448 88.4002 97.5579C89.0568 99.4013 90.8126 100.64 92.7705 100.64C94.7284 100.64 96.4843 99.4013 97.1408 97.5579C97.4304 96.7448 98.3243 96.3205 99.1375 96.6084C99.9506 96.898 100.375 97.7919 100.087 98.605C98.9893 101.693 96.0499 103.767 92.7722 103.767H92.7688Z" fill="#141313"/>
<path d="M110.29 103.767C107.013 103.767 104.073 101.693 102.976 98.605C102.686 97.7919 103.112 96.898 103.925 96.6084C104.738 96.3188 105.632 96.7448 105.922 97.5579C106.578 99.4013 108.334 100.64 110.292 100.64C112.25 100.64 114.006 99.4013 114.662 97.5579C114.952 96.7448 115.846 96.3205 116.659 96.6084C117.472 96.898 117.896 97.7919 117.608 98.605C116.511 101.693 113.571 103.767 110.294 103.767H110.29Z" fill="#141313"/>
<path d="M101.563 114.76C91.1876 114.76 81.2685 110.894 73.6356 103.878C73.0009 103.293 72.9589 102.305 73.543 101.669C74.1272 101.034 75.1154 100.992 75.7518 101.576C82.8072 108.061 91.9755 111.633 101.565 111.633C111.154 111.633 120.322 108.061 127.377 101.576C128.012 100.992 129.002 101.034 129.586 101.669C130.17 102.303 130.128 103.293 129.494 103.878C121.859 110.894 111.942 114.76 101.566 114.76H101.563Z" fill="#141313"/>
</g>
<path d="M159.834 63.8262C159.09 68.5482 156.056 72.8093 151.383 74.9201C143.875 78.3113 134.977 74.7951 131.811 67.1878C130.036 62.9239 130.428 58.2736 132.504 54.4917C132.587 54.3427 132.501 54.1586 132.339 54.1193C128.139 53.1383 124.421 50.3192 122.436 46.1466C118.898 38.7052 122.236 29.739 129.783 26.4237C134.48 24.3634 139.678 24.9579 143.682 27.5634C143.838 27.6646 144.045 27.5733 144.074 27.3878C144.818 22.6657 147.852 18.4047 152.525 16.2938C160.033 12.9026 168.931 16.4189 172.097 24.0261C173.872 28.29 173.48 32.9404 171.404 36.7194C171.321 36.8684 171.407 37.0525 171.569 37.0918C175.768 38.077 179.485 40.8962 181.47 45.0687C185.007 52.5101 181.669 61.4764 174.122 64.7917C169.426 66.8519 164.227 66.2575 160.223 63.6519C160.067 63.5507 159.861 63.6421 159.831 63.8276H159.834V63.8262Z" fill="#FFCD00"/>
<path d="M158.554 67.9241L121.051 38.958C120.898 41.357 121.332 43.8248 122.436 46.1451C124.42 50.3176 128.137 53.1368 132.339 54.1177C132.501 54.1571 132.587 54.3412 132.504 54.4901C130.429 58.272 130.037 62.9224 131.811 67.1862C134.976 74.7935 143.874 78.3083 151.383 74.9186C154.647 73.4443 157.11 70.9203 158.554 67.9241Z" fill="#FFB600"/>
</g>
<defs>
<clipPath id="clip0_1687_12573">
<rect width="200" height="200" fill="white"/>
</clipPath>
</defs>
</svg>
