<svg width="1440" height="528" viewBox="0 0 1440 528" fill="none" xmlns="http://www.w3.org/2000/svg">
<g clip-path="url(#clip0)">
<path d="M0 243.322V528H1440V204.395C1351.32 194.37 1263.47 171.67 1180.36 140.457C1144.4 126.953 1108.45 111.802 1072.4 96.6078C943.284 42.1905 812.866 -12.7755 676.008 5.41978C576.101 18.7048 489.148 69.2738 401.666 120.151C340.02 156.003 278.11 192.007 211.219 215.227C143.743 238.655 71.4744 247.708 0 243.322Z" fill="white"/>
<path d="M1440 328.936C1358.17 316.683 1278.48 290.506 1205.9 250.855C1164.52 228.244 1125.54 201.588 1086.58 174.943L1086.57 174.942L1086.57 174.941C1040.53 143.455 994.507 111.986 944.59 87.2287C831.52 31.1443 694.12 12.8658 578.54 63.6067C507.861 94.6346 451.485 147.731 394.866 201.056C354.146 239.407 313.301 277.875 266.92 308.337C197.218 354.117 115.231 378.159 32.0737 381.616H0V243.322C71.4744 247.708 143.743 238.655 211.219 215.227C278.11 192.007 340.02 156.003 401.666 120.151C489.148 69.2738 576.101 18.7048 676.008 5.41978C812.866 -12.7755 943.284 42.1905 1072.4 96.6078C1108.45 111.802 1144.4 126.953 1180.36 140.457C1263.47 171.67 1351.32 194.37 1440 204.395V328.936Z" fill="#FF7E1D"/>
</g>
<defs>
<clipPath id="clip0">
<rect width="1440" height="528" fill="white"/>
</clipPath>
</defs>
</svg>
