<svg width="177" height="180" viewBox="0 0 177 180" fill="none" xmlns="http://www.w3.org/2000/svg">
<path d="M88.4464 179.893C137.294 179.893 176.893 140.294 176.893 91.4464C176.893 42.5988 137.294 3 88.4464 3C39.5988 3 0 42.5988 0 91.4464C0 140.294 39.5988 179.893 88.4464 179.893Z" fill="#00A4FF"/>
<mask id="mask0_1740_19897" style="mask-type:alpha" maskUnits="userSpaceOnUse" x="0" y="3" width="177" height="177">
<path d="M88.4464 179.893C137.294 179.893 176.893 140.294 176.893 91.4464C176.893 42.5988 137.294 3 88.4464 3C39.5988 3 0 42.5988 0 91.4464C0 140.294 39.5988 179.893 88.4464 179.893Z" fill="#00A4FF"/>
</mask>
<g mask="url(#mask0_1740_19897)">
<path d="M31.7048 85H83.2972C85.8939 85 88 87.7894 88 91.2225V181H27V91.2225C27 87.7868 29.1081 85 31.7028 85H31.7048Z" fill="#FFB700"/>
<mask id="mask1_1740_19897" style="mask-type:luminance" maskUnits="userSpaceOnUse" x="31" y="85" width="58" height="96">
<path d="M35.3986 85.1094H83.633C86.0606 85.1094 88.0297 87.8956 88.0297 91.3248V181H31V91.3248C31 87.893 32.9709 85.1094 35.3967 85.1094H35.3986Z" fill="white"/>
</mask>
<g mask="url(#mask1_1740_19897)">
<path d="M94.083 85L65 181H89.4339L100.367 85.784L94.083 85Z" fill="#FFA500"/>
</g>
<path d="M93.914 37H143.086C146.349 37 149 40.164 149 44.0592V181H88V44.0616C88 40.1664 90.6507 37.0024 93.914 37.0024V37Z" fill="#FF7300"/>
<path d="M113.829 57.6848C111.276 57.6848 109.197 55.608 109.197 53.0531C109.197 52.4676 109.672 51.9932 110.257 51.9932C110.843 51.9932 111.317 52.4676 111.317 53.0531C111.317 54.4388 112.443 55.565 113.829 55.565C115.215 55.565 116.341 54.437 116.341 53.0531C116.341 52.4676 116.815 51.9932 117.401 51.9932C117.986 51.9932 118.461 52.4676 118.461 53.0531C118.461 55.6062 116.384 57.6848 113.829 57.6848Z" fill="#141313"/>
<path d="M124.448 57.6848C121.895 57.6848 119.816 55.608 119.816 53.0531C119.816 52.4676 120.291 51.9932 120.876 51.9932C121.462 51.9932 121.936 52.4676 121.936 53.0531C121.936 54.4388 123.064 55.565 124.448 55.565C125.832 55.565 126.96 54.437 126.96 53.0531C126.96 52.4676 127.435 51.9932 128.02 51.9932C128.605 51.9932 129.08 52.4676 129.08 53.0531C129.08 55.6062 127.003 57.6848 124.448 57.6848Z" fill="#141313"/>
<path d="M119.139 65.4071C111.543 65.4071 104.787 60.5803 102.331 53.3972C102.141 52.844 102.437 52.2424 102.99 52.0526C103.543 51.8628 104.146 52.1583 104.334 52.7115C106.497 59.0387 112.447 63.2891 119.137 63.2891C125.828 63.2891 131.777 59.0387 133.94 52.7115C134.13 52.1583 134.732 51.8628 135.285 52.0526C135.838 52.2424 136.134 52.844 135.944 53.3972C133.487 60.582 126.732 65.4071 119.136 65.4071H119.139Z" fill="#141313"/>
</g>
<path d="M117.695 4.63801L133.063 20.0062L116.548 36.5206C115.898 37.1713 114.842 37.1713 114.192 36.5206L101.179 23.5081C100.528 22.8574 100.528 21.8018 101.179 21.1511L117.693 4.63672L117.695 4.63801Z" fill="#FFCE00"/>
<mask id="mask2_1740_19897" style="mask-type:luminance" maskUnits="userSpaceOnUse" x="100" y="4" width="34" height="34">
<path d="M117.697 4.63801L133.065 20.0062L116.55 36.5206C115.9 37.1713 114.844 37.1713 114.193 36.5206L101.181 23.5081C100.53 22.8574 100.53 21.8018 101.181 21.1511L117.695 4.63672L117.697 4.63801Z" fill="white"/>
</mask>
<g mask="url(#mask2_1740_19897)">
<path d="M129.055 30.2191L122.291 22.25L124.344 33.7207" fill="#FFB700"/>
</g>
<path d="M137.699 35.5665V2.06912C137.699 0.925705 136.773 0 135.63 0H102.132C100.936 0 100.338 1.44527 101.183 2.29048L135.408 36.516C136.254 37.3612 137.699 36.7629 137.699 35.5665Z" fill="#FFCE00"/>
</svg>
