<svg width="85" height="33" viewBox="0 0 85 33" fill="none" xmlns="http://www.w3.org/2000/svg">
<g clip-path="url(#clip0_878_1480)">
<path d="M0 16C0 7.16346 7.16343 0 16 0V0C24.8365 0 31.9999 7.16346 31.9999 16V16C31.9999 24.8365 24.8365 32 16 32V32C7.16343 32 0 24.8365 0 16V16Z" fill="#FFCAE7"/>
<path fill-rule="evenodd" clip-rule="evenodd" d="M33.3482 20.312C34.4564 21.1186 35.1768 22.4259 35.1768 23.9015V27.5606C35.1768 30.0108 33.1905 31.9971 30.7403 31.9971H1.26072C-1.18949 31.9971 -3.17578 30.0108 -3.17578 27.5606V23.9015C-3.17578 22.4259 -2.45538 21.1185 -1.34711 20.3119C-1.41934 19.9008 -1.45702 19.4777 -1.45702 19.0459C-1.45702 15.0326 1.79637 11.7792 5.80962 11.7792C5.95255 11.7792 6.09451 11.7834 6.2354 11.7915C7.86813 8.0165 11.6258 5.375 16.0004 5.375C20.375 5.375 24.1327 8.0165 25.7654 11.7915C25.9064 11.7834 26.0485 11.7792 26.1915 11.7792C30.2047 11.7792 33.4581 15.0326 33.4581 19.0459C33.4581 19.4778 33.4204 19.9008 33.3482 20.312Z" fill="#00A4FF"/>
<path fill-rule="evenodd" clip-rule="evenodd" d="M13.9603 17.3336C14.2183 17.2317 14.51 17.3581 14.612 17.6161C14.722 17.8945 14.9133 18.1334 15.1609 18.3018C15.4084 18.4701 15.7009 18.5602 16.0003 18.5602C16.2997 18.5602 16.5922 18.4701 16.8398 18.3018C17.0873 18.1334 17.2786 17.8945 17.3886 17.6161C17.4906 17.3581 17.7824 17.2317 18.0403 17.3336C18.2982 17.4356 18.4247 17.7274 18.3227 17.9853C18.1386 18.4511 17.8187 18.8507 17.4046 19.1324C16.9904 19.414 16.5011 19.5646 16.0003 19.5646C15.4995 19.5646 15.0102 19.414 14.596 19.1324C14.1819 18.8507 13.862 18.4511 13.6779 17.9853C13.5759 17.7274 13.7024 17.4356 13.9603 17.3336Z" fill="#141313"/>
<path fill-rule="evenodd" clip-rule="evenodd" d="M16.7143 14.0145C16.9723 13.9126 17.264 14.0391 17.3659 14.2971C17.5241 14.6974 17.7989 15.0408 18.1548 15.2829C18.5107 15.5249 18.9311 15.6544 19.3615 15.6544C19.7919 15.6544 20.2124 15.5249 20.5683 15.2829C20.9241 15.0408 21.199 14.6974 21.3572 14.2971C21.4591 14.0391 21.7508 13.9126 22.0088 14.0145C22.2667 14.1164 22.3932 14.4082 22.2913 14.6661C22.0592 15.2538 21.6556 15.7581 21.1331 16.1134C20.6107 16.4688 19.9934 16.6588 19.3615 16.6588C18.7297 16.6588 18.1124 16.4688 17.5899 16.1134C17.0675 15.7581 16.6639 15.2538 16.4318 14.6661C16.3298 14.4082 16.4563 14.1164 16.7143 14.0145Z" fill="#141313"/>
<path fill-rule="evenodd" clip-rule="evenodd" d="M9.99067 14.0145C10.2486 13.9126 10.5404 14.0391 10.6423 14.2971C10.8004 14.6974 11.0753 15.0408 11.4312 15.2829C11.7871 15.5249 12.2075 15.6544 12.6379 15.6544C13.0683 15.6544 13.4887 15.5249 13.8446 15.2829C14.2005 15.0408 14.4754 14.6974 14.6335 14.2971C14.7354 14.0391 15.0272 13.9126 15.2851 14.0145C15.5431 14.1164 15.6696 14.4082 15.5677 14.6661C15.3355 15.2538 14.932 15.7581 14.4095 16.1134C13.887 16.4688 13.2698 16.6588 12.6379 16.6588C12.006 16.6588 11.3888 16.4688 10.8663 16.1134C10.3438 15.7581 9.94029 15.2538 9.70812 14.6661C9.6062 14.4082 9.7327 14.1164 9.99067 14.0145Z" fill="#141313"/>
</g>
<g clip-path="url(#clip1_878_1480)">
<path d="M52.1719 16.4453C52.1719 7.60878 59.3353 0.445312 68.1718 0.445312V0.445312C77.0084 0.445312 84.1718 7.60878 84.1718 16.4453V16.4453C84.1718 25.2818 77.0084 32.4453 68.1718 32.4453V32.4453C59.3353 32.4453 52.1719 25.2818 52.1719 16.4453V16.4453Z" fill="#01A652"/>
<path d="M67.3654 7.96061L49.9593 14.761C47.0116 15.9126 45.5556 19.2358 46.7073 22.1834L53.5076 39.5896C54.6592 42.5373 57.9824 43.9933 60.9301 42.8416L78.3362 36.0413C81.2838 34.8896 82.7398 31.5665 81.5882 28.6188L74.7879 11.2127C73.6362 8.26498 70.3131 6.80899 67.3654 7.96061Z" fill="#9E65C6"/>
<path fill-rule="evenodd" clip-rule="evenodd" d="M62.4641 16.7215C62.6303 16.5527 62.9018 16.5506 63.0706 16.7168C64.2555 17.8835 65.8516 18.5374 67.5144 18.5374C69.1773 18.5374 70.7734 17.8835 71.9582 16.7168C72.127 16.5506 72.3986 16.5527 72.5648 16.7215C72.7309 16.8903 72.7288 17.1618 72.5601 17.328C71.2147 18.6527 69.4025 19.3952 67.5144 19.3952C65.6264 19.3952 63.8141 18.6527 62.4688 17.328C62.3 17.1618 62.2979 16.8903 62.4641 16.7215Z" fill="#141313"/>
<path fill-rule="evenodd" clip-rule="evenodd" d="M63.8012 14.0041C64.1864 13.6807 64.6733 13.5034 65.1762 13.5034C65.6792 13.5034 66.1661 13.6807 66.5513 14.0041C66.9365 14.3275 67.1954 14.7764 67.2825 15.2717C67.3235 15.505 67.1676 15.7274 66.9343 15.7684C66.701 15.8094 66.4786 15.6535 66.4376 15.4202C66.3855 15.1235 66.2304 14.8547 65.9997 14.6611C65.7691 14.4674 65.4775 14.3612 65.1762 14.3612C64.875 14.3612 64.5834 14.4674 64.3527 14.6611C64.122 14.8547 63.967 15.1235 63.9148 15.4202C63.8738 15.6535 63.6515 15.8094 63.4182 15.7684C63.1849 15.7274 63.029 15.505 63.07 15.2717C63.1571 14.7764 63.416 14.3275 63.8012 14.0041Z" fill="#141313"/>
<path fill-rule="evenodd" clip-rule="evenodd" d="M68.4772 14.001C68.8624 13.6759 69.3503 13.4976 69.8544 13.4976C70.3585 13.4976 70.8464 13.6759 71.2316 14.001C71.6169 14.3261 71.8747 14.7771 71.9595 15.274C71.9993 15.5075 71.8423 15.7291 71.6088 15.7689C71.3753 15.8087 71.1537 15.6517 71.1139 15.4182C71.0632 15.1209 70.9089 14.8511 70.6784 14.6566C70.4479 14.462 70.156 14.3553 69.8544 14.3553C69.5528 14.3553 69.2609 14.462 69.0304 14.6566C68.7999 14.8511 68.6456 15.1209 68.5949 15.4182C68.5551 15.6517 68.3335 15.8087 68.1 15.7689C67.8665 15.7291 67.7095 15.5075 67.7493 15.274C67.8341 14.7771 68.0919 14.3261 68.4772 14.001Z" fill="#141313"/>
</g>
<g clip-path="url(#clip2_878_1480)">
<path d="M24.4844 16C24.4844 7.16346 31.6478 0 40.4843 0V0C49.3209 0 56.4843 7.16346 56.4843 16V16C56.4843 24.8365 49.3209 32 40.4843 32V32C31.6478 32 24.4844 24.8365 24.4844 16V16Z" fill="#FF7300"/>
<path d="M56.9454 33.9891H50.0857C49.3836 33.9824 48.7014 33.7546 48.1361 33.3382C47.5708 32.9217 47.1511 32.3377 46.9367 31.6691C46.4487 30.2026 45.5115 28.9269 44.2579 28.0229C43.0043 27.1189 41.498 26.6324 39.9525 26.6324C38.4069 26.6324 36.9006 27.1189 35.647 28.0229C34.3935 28.9269 33.4562 30.2026 32.9682 31.6691C32.7538 32.3377 32.3341 32.9217 31.7688 33.3382C31.2035 33.7546 30.5214 33.9824 29.8193 33.9891H22.9595C22.4742 33.9907 21.9944 33.8852 21.5546 33.6799C21.1148 33.4746 20.7258 33.1747 20.4154 32.8016C20.1049 32.4285 19.8808 31.9915 19.7589 31.5216C19.637 31.0518 19.6204 30.5609 19.7104 30.0839C20.618 25.381 23.1348 21.1408 26.8286 18.0917C30.5225 15.0425 35.1627 13.3748 39.9525 13.3748C44.7422 13.3748 49.3825 15.0425 53.0763 18.0917C56.7701 21.1408 59.287 25.381 60.1946 30.0839C60.2839 30.5608 60.267 31.0516 60.1449 31.5211C60.0228 31.9907 59.7986 32.4276 59.4883 32.8005C59.1779 33.1735 58.7891 33.4734 58.3496 33.6788C57.9101 33.8843 57.4306 33.9902 56.9454 33.9891V33.9891Z" fill="#FFCE00"/>
<path fill-rule="evenodd" clip-rule="evenodd" d="M37.1523 16.3163C37.3583 16.3261 37.5173 16.501 37.5075 16.707C37.5013 16.8387 37.5218 16.9704 37.5679 17.094C37.6141 17.2176 37.6848 17.3306 37.7758 17.4261C37.8669 17.5215 37.9763 17.5975 38.0976 17.6495C38.2189 17.7014 38.3494 17.7282 38.4814 17.7282C38.6133 17.7282 38.7438 17.7014 38.8651 17.6495C38.9864 17.5975 39.0959 17.5215 39.1869 17.4261C39.2779 17.3306 39.3487 17.2176 39.3948 17.094C39.4409 16.9704 39.4614 16.8387 39.4552 16.707C39.4454 16.501 39.6044 16.3261 39.8104 16.3163C40.0163 16.3066 40.1912 16.4656 40.201 16.6715C40.2121 16.9042 40.1758 17.1368 40.0943 17.355C40.0129 17.5733 39.888 17.7728 39.7273 17.9414C39.5665 18.1099 39.3732 18.2441 39.159 18.3358C38.9449 18.4275 38.7143 18.4748 38.4814 18.4748C38.2484 18.4748 38.0179 18.4275 37.8037 18.3358C37.5896 18.2441 37.3962 18.1099 37.2355 17.9414C37.0747 17.7728 36.9498 17.5733 36.8684 17.355C36.7869 17.1368 36.7507 16.9042 36.7617 16.6715C36.7715 16.4656 36.9464 16.3066 37.1523 16.3163Z" fill="#141313"/>
<path fill-rule="evenodd" clip-rule="evenodd" d="M41.1582 16.3163C41.3641 16.3261 41.5232 16.501 41.5134 16.707C41.5071 16.8387 41.5277 16.9704 41.5738 17.094C41.6199 17.2176 41.6906 17.3306 41.7817 17.4261C41.8727 17.5215 41.9822 17.5975 42.1035 17.6495C42.2247 17.7014 42.3553 17.7282 42.4872 17.7282C42.6191 17.7282 42.7497 17.7014 42.871 17.6495C42.9922 17.5975 43.1017 17.5215 43.1928 17.4261C43.2838 17.3306 43.3545 17.2176 43.4006 17.094C43.4468 16.9704 43.4673 16.8387 43.461 16.707C43.4513 16.501 43.6103 16.3261 43.8162 16.3163C44.0222 16.3066 44.1971 16.4656 44.2069 16.6715C44.2179 16.9042 44.1816 17.1368 44.1002 17.355C44.0188 17.5733 43.8939 17.7728 43.7331 17.9414C43.5723 18.1099 43.379 18.2441 43.1649 18.3358C42.9507 18.4275 42.7202 18.4748 42.4872 18.4748C42.2543 18.4748 42.0237 18.4275 41.8096 18.3358C41.5954 18.2441 41.4021 18.1099 41.2413 17.9414C41.0806 17.7728 40.9557 17.5733 40.8742 17.355C40.7928 17.1368 40.7565 16.9042 40.7676 16.6715C40.7773 16.4656 40.9522 16.3066 41.1582 16.3163Z" fill="#141313"/>
<path fill-rule="evenodd" clip-rule="evenodd" d="M34.396 16.3362C34.591 16.2693 34.8033 16.3733 34.8702 16.5684C35.2707 17.7374 36.0265 18.752 37.0319 19.4704C38.0374 20.1887 39.2422 20.5749 40.4779 20.5749C41.7136 20.5749 42.9184 20.1887 43.9238 19.4704C44.9293 18.752 45.6851 17.7374 46.0856 16.5684C46.1524 16.3733 46.3647 16.2693 46.5598 16.3362C46.7548 16.403 46.8588 16.6153 46.7919 16.8103C46.341 18.1266 45.49 19.269 44.3579 20.0779C43.2258 20.8867 41.8692 21.3216 40.4779 21.3216C39.0865 21.3216 37.7299 20.8867 36.5979 20.0779C35.4658 19.269 34.6147 18.1266 34.1638 16.8103C34.097 16.6153 34.2009 16.403 34.396 16.3362Z" fill="#141313"/>
</g>
<defs>
<clipPath id="clip0_878_1480">
<path d="M0 16C0 7.16346 7.16343 0 16 0V0C24.8365 0 31.9999 7.16346 31.9999 16V16C31.9999 24.8365 24.8365 32 16 32V32C7.16343 32 0 24.8365 0 16V16Z" fill="white"/>
</clipPath>
<clipPath id="clip1_878_1480">
<path d="M52.1719 16.4453C52.1719 7.60878 59.3353 0.445312 68.1718 0.445312V0.445312C77.0084 0.445312 84.1718 7.60878 84.1718 16.4453V16.4453C84.1718 25.2818 77.0084 32.4453 68.1718 32.4453V32.4453C59.3353 32.4453 52.1719 25.2818 52.1719 16.4453V16.4453Z" fill="white"/>
</clipPath>
<clipPath id="clip2_878_1480">
<path d="M24.4844 16C24.4844 7.16346 31.6478 0 40.4843 0V0C49.3209 0 56.4843 7.16346 56.4843 16V16C56.4843 24.8365 49.3209 32 40.4843 32V32C31.6478 32 24.4844 24.8365 24.4844 16V16Z" fill="white"/>
</clipPath>
</defs>
</svg>
