<svg width="182" height="179" viewBox="0 0 182 179" fill="none" xmlns="http://www.w3.org/2000/svg">
<mask id="mask0_1740_19869" style="mask-type:luminance" maskUnits="userSpaceOnUse" x="3" y="0" width="179" height="179">
<path d="M92.1 178.2C141.309 178.2 181.2 138.309 181.2 89.1C181.2 39.8914 141.309 0 92.1 0C42.8914 0 3 39.8914 3 89.1C3 138.309 42.8914 178.2 92.1 178.2Z" fill="white"/>
</mask>
<g mask="url(#mask0_1740_19869)">
<path d="M53.8437 178.2C46.1264 178.2 38.6297 175.838 31.5529 171.176C24.7282 166.682 18.6069 160.267 13.3675 152.098C8.11772 143.929 3.99136 134.406 1.11446 123.791C-1.88844 112.777 -3.40039 101.112 -3.40039 89.1C-3.40039 77.0884 -1.87794 65.4233 1.11446 54.4092C3.99136 43.794 8.11772 34.2603 13.3675 26.0916C18.6174 17.9229 24.7387 11.5076 31.5529 7.02426C38.6297 2.36242 46.1264 0 53.8437 0H130.355C138.072 0 145.569 2.36242 152.645 7.02426C159.47 11.5181 165.591 17.9334 170.831 26.1021C176.07 34.2708 180.207 43.794 183.084 54.4092C186.076 65.4233 187.599 77.0989 187.599 89.1C187.599 101.101 186.076 112.777 183.084 123.791C180.196 134.406 176.07 143.929 170.831 152.098C165.581 160.267 159.46 166.682 152.645 171.176C145.569 175.838 138.072 178.2 130.355 178.2H53.8437Z" fill="#FFCE00"/>
</g>
<mask id="mask1_1740_19869" style="mask-type:luminance" maskUnits="userSpaceOnUse" x="3" y="0" width="179" height="179">
<path d="M92.1 178.2C141.309 178.2 181.2 138.309 181.2 89.1C181.2 39.8914 141.309 0 92.1 0C42.8914 0 3 39.8914 3 89.1C3 138.309 42.8914 178.2 92.1 178.2Z" fill="white"/>
</mask>
<g mask="url(#mask1_1740_19869)">
<path d="M144.357 -3C189.492 -3 226.139 32.8983 226.139 77.1123V175.599H62.5645V77.1123C62.5645 32.8983 99.2109 -3 144.357 -3Z" fill="#FFCE00"/>
<path d="M105.173 100.979C105.173 90.6719 96.8173 82.3164 86.5106 82.3164H42.7325C32.4258 82.3164 24.0703 90.6719 24.0703 100.979C24.0703 108.211 28.1871 114.477 34.2011 117.577C28.1871 120.676 24.0703 126.943 24.0703 134.175C24.0703 141.407 28.1871 147.673 34.2011 150.773C28.1871 153.872 24.0703 160.139 24.0703 167.371C24.0703 177.678 32.4258 186.033 42.7325 186.033H86.5106C96.8173 186.033 105.173 177.678 105.173 167.371C105.173 160.139 101.056 153.872 95.042 150.773C101.056 147.673 105.173 141.407 105.173 134.175C105.173 126.943 101.056 120.676 95.042 117.577C101.056 114.477 105.173 108.211 105.173 100.979Z" fill="#FF76B7"/>
<path d="M105.173 100.979C105.173 96.997 103.921 93.3088 101.799 90.2793C95.4599 94.8676 93.6372 104.358 99.2203 113.315C99.394 113.591 99.5699 113.864 99.7504 114.132C103.103 110.757 105.176 106.11 105.176 100.979H105.173Z" fill="#141313"/>
<path d="M59.958 99.9999C57.7631 99.9999 55.9766 98.2134 55.9766 96.0185C55.9766 95.5515 56.3555 95.1748 56.8202 95.1748C57.2849 95.1748 57.6639 95.5538 57.6639 96.0185C57.6639 97.2817 58.6925 98.3104 59.9558 98.3104C61.219 98.3104 62.2476 97.2817 62.2476 96.0185C62.2476 95.5515 62.6266 95.1748 63.0913 95.1748C63.556 95.1748 63.935 95.5538 63.935 96.0185C63.935 98.2134 62.1484 99.9999 59.9535 99.9999H59.958Z" fill="#141313"/>
<path d="M69.2842 99.9999C67.0893 99.9999 65.3027 98.2134 65.3027 96.0185C65.3027 95.5515 65.6817 95.1748 66.1464 95.1748C66.6111 95.1748 66.9901 95.5538 66.9901 96.0185C66.9901 97.2817 68.0187 98.3104 69.282 98.3104C70.5452 98.3104 71.5738 97.2817 71.5738 96.0185C71.5738 95.5515 71.9528 95.1748 72.4175 95.1748C72.8822 95.1748 73.2612 95.5538 73.2612 96.0185C73.2612 98.2134 71.4746 99.9999 69.2797 99.9999H69.2842Z" fill="#141313"/>
<path d="M64.6207 106.783C57.9865 106.783 52.0876 102.566 49.9423 96.2931C49.7912 95.851 50.0258 95.3728 50.4679 95.2216C50.9101 95.0705 51.3883 95.3051 51.5394 95.7472C53.4501 101.339 58.7083 105.095 64.6207 105.095C70.5332 105.095 75.7914 101.339 77.7021 95.7472C77.8532 95.3051 78.3337 95.0705 78.7736 95.2216C79.2134 95.3728 79.4503 95.8533 79.2992 96.2931C77.1539 102.566 71.255 106.783 64.6207 106.783Z" fill="#141313"/>
<path d="M94.6539 33.8401C94.6471 32.0716 93.2056 30.6436 91.4394 30.6504L86.6481 30.6685V30.673C78.0828 30.7068 70.5034 34.9251 65.8429 41.3812L65.8136 33.9506C65.8068 32.1821 64.3654 30.7542 62.5991 30.7609L57.8078 30.779C43.5896 30.8331 32.0828 42.4234 32.1369 56.6506C32.191 70.8734 43.7813 82.3757 58.0063 82.3215L62.7976 82.3035C64.5661 82.2967 65.9941 80.8553 65.9873 79.089L65.958 71.6629C70.6703 78.0829 78.2791 82.2448 86.8443 82.211L91.6356 82.193C93.4042 82.1862 94.8321 80.7447 94.8253 78.9785L94.6516 33.8401H94.6539Z" fill="#FF7300"/>
<path d="M65.8945 71.5746C67.4894 73.7695 69.4226 75.7005 71.6175 77.2953C69.5241 74.0695 67.3834 68.9489 65.8945 60.8213V71.5746Z" fill="#141313"/>
<path d="M121.706 75.4976C119.351 79.4227 115.123 82.1161 110.217 82.3124C102.331 82.6259 95.6921 76.3052 95.6154 68.4145C95.5725 63.9909 97.5914 60.0026 100.792 57.3882C100.919 57.2867 100.91 57.0904 100.781 56.9979C97.4042 54.6181 95.1146 50.7787 94.8529 46.3596C94.386 38.4801 100.571 31.7173 108.464 31.4849C113.375 31.3428 117.779 33.7385 120.397 37.4921C120.499 37.6387 120.716 37.632 120.81 37.4763C123.165 33.5512 127.393 30.8578 132.299 30.6616C140.185 30.348 146.824 36.6687 146.901 44.5595C146.944 48.9831 144.925 52.9713 141.724 55.5813C141.597 55.6828 141.606 55.879 141.735 55.9715C145.11 58.3559 147.397 62.1953 147.661 66.6121C148.128 74.4916 141.943 81.2544 134.05 81.4868C129.139 81.6289 124.735 79.2332 122.116 75.4796C122.015 75.333 121.798 75.3397 121.704 75.4954H121.706V75.4976Z" fill="#0061EE"/>
<path d="M170.797 73.9108L165.124 70.926L164.038 64.608C163.942 64.0394 163.178 63.9184 162.911 64.4295L159.926 70.1028L153.608 71.1883C153.039 71.2844 152.918 72.0488 153.429 72.3158L159.103 75.3006L160.188 81.6186C160.284 82.1872 161.049 82.3083 161.316 81.7972L164.3 76.1239L170.618 75.0383C171.187 74.9423 171.308 74.1779 170.797 73.9108Z" fill="white"/>
<path d="M120.047 124.48C143.194 124.48 161.987 143.273 161.987 166.42V224.15C161.987 226.684 159.929 228.739 157.398 228.739H82.6957C80.1624 228.739 78.1074 226.681 78.1074 224.15V166.42C78.1074 143.273 96.9004 124.48 120.047 124.48Z" fill="#0040E9"/>
<path d="M120.047 124.48C96.8846 124.48 78.1074 143.258 78.1074 166.42V199.533C104.004 201.881 131.34 184.604 144.173 155.486C146.871 149.364 148.747 143.122 149.855 136.919C142.253 129.24 131.707 124.48 120.047 124.48Z" fill="#0061EE"/>
<path d="M125.528 143.522C123.536 143.522 121.75 142.268 121.082 140.4C120.926 139.963 121.154 139.482 121.592 139.324C122.03 139.166 122.51 139.396 122.668 139.834C123.097 141.034 124.247 141.839 125.531 141.839C126.814 141.839 127.965 141.032 128.393 139.834C128.549 139.396 129.032 139.169 129.469 139.324C129.907 139.48 130.135 139.963 129.979 140.4C129.311 142.268 127.525 143.522 125.533 143.522H125.528Z" fill="#141313"/>
<path d="M114.567 143.539C112.576 143.539 110.787 142.278 110.121 140.401C109.966 139.963 110.193 139.483 110.631 139.327C111.069 139.172 111.549 139.399 111.705 139.837C112.133 141.044 113.284 141.856 114.567 141.856C115.851 141.856 117.001 141.044 117.43 139.837C117.586 139.399 118.066 139.172 118.504 139.327C118.941 139.483 119.169 139.963 119.014 140.401C118.346 142.278 116.559 143.539 114.567 143.539Z" fill="#141313"/>
<path d="M120.068 150.374C116.181 150.374 112.333 149.494 108.85 147.797C108.433 147.594 108.259 147.091 108.462 146.674C108.665 146.257 109.168 146.083 109.585 146.286C113.282 148.084 117.417 148.9 121.545 148.646C124.688 148.452 127.706 147.664 130.514 146.306C130.932 146.103 131.435 146.279 131.638 146.697C131.841 147.114 131.665 147.617 131.248 147.82C128.241 149.275 125.01 150.116 121.649 150.324C121.121 150.355 120.596 150.374 120.068 150.374Z" fill="#141313"/>
<path d="M121.258 62.4488C117.137 62.4488 113.248 60.8562 110.309 57.9688C109.997 57.662 109.993 57.1589 110.3 56.8477C110.606 56.5364 111.109 56.5318 111.421 56.8386C114.062 59.435 117.554 60.8652 121.258 60.8652C124.962 60.8652 128.454 59.435 131.096 56.8386C131.407 56.5318 131.91 56.5364 132.217 56.8477C132.524 57.1589 132.519 57.662 132.208 57.9688C129.268 60.8584 125.38 62.4488 121.258 62.4488Z" fill="#141313"/>
<path d="M119.823 54.5495C119.444 54.5495 119.11 54.2766 119.042 53.8908C118.798 52.4742 117.576 51.4478 116.137 51.4478C114.697 51.4478 113.477 52.4742 113.231 53.8908C113.157 54.3217 112.746 54.6127 112.315 54.5383C111.884 54.4638 111.593 54.0533 111.668 53.6224C112.045 51.4456 113.924 49.8643 116.137 49.8643C118.35 49.8643 120.229 51.4456 120.605 53.6224C120.68 54.0533 120.391 54.4638 119.958 54.5383C119.913 54.5473 119.868 54.5495 119.823 54.5495Z" fill="#141313"/>
<path d="M122.701 54.5495C122.656 54.5495 122.61 54.545 122.565 54.5383C122.134 54.4638 121.843 54.0533 121.918 53.6224C122.295 51.4456 124.174 49.8643 126.387 49.8643C128.6 49.8643 130.479 51.4456 130.855 53.6224C130.93 54.0533 130.641 54.4638 130.208 54.5383C129.777 54.6127 129.367 54.324 129.292 53.8908C129.048 52.4742 127.826 51.4478 126.387 51.4478C124.947 51.4478 123.727 52.4742 123.481 53.8908C123.416 54.2766 123.08 54.5495 122.701 54.5495Z" fill="#141313"/>
<path d="M136.13 83.3906C126.105 80.3814 121.465 88.3421 121.465 88.3421C121.465 88.3421 117.197 80.1671 107.05 82.6936C96.9036 85.2246 92.5792 97.0381 99.4413 108.044C104.729 116.497 113.33 121.59 117.783 123.783C119.556 124.66 121.627 124.71 123.438 123.92C127.964 121.931 136.836 117.302 142.518 109.062C149.897 98.3961 146.202 86.4066 136.132 83.3884H136.13V83.3906Z" fill="#02863E"/>
<path d="M136.13 83.3906C126.105 80.3814 121.465 88.3421 121.465 88.3421C121.465 88.3421 117.197 80.1671 107.05 82.6936C96.9036 85.2246 92.5792 97.0381 99.4413 108.044C102.762 113.354 107.393 117.338 111.48 120.11C117.849 118.594 124.35 114.656 129.54 108.613C136.06 101.024 138.988 91.8904 138.128 84.1418C137.494 83.8508 136.829 83.5959 136.132 83.3884H136.13V83.3906Z" fill="#01A552"/>
</g>
<path d="M13.8604 123.856L15.5607 120.745C16.1017 119.752 17.5315 119.752 18.0725 120.745L19.7729 123.856C22.0799 128.075 25.5539 131.55 29.7776 133.86L32.8884 135.561C33.8815 136.102 33.8815 137.532 32.8884 138.073L29.7776 139.773C25.5578 142.08 22.0837 145.554 19.7729 149.778L18.0725 152.888C17.5315 153.882 16.1056 153.882 15.5607 152.888L13.8604 149.778C11.5534 145.558 8.07934 142.084 3.85562 139.773L0.744851 138.073C-0.248284 137.532 -0.248284 136.106 0.744851 135.561L3.85562 133.86C8.07547 131.553 11.5495 128.079 13.8604 123.856Z" fill="white"/>
</svg>
