<svg width="349" height="496" viewBox="0 0 349 496" fill="none" xmlns="http://www.w3.org/2000/svg">
<path d="M190.4 215.362C190.4 200.438 178.293 188.34 163.359 188.34H99.9279C84.9942 188.34 72.8877 200.438 72.8877 215.362C72.8877 225.834 78.8527 234.908 87.5665 239.396C78.8527 243.884 72.8877 252.958 72.8877 263.43C72.8877 273.902 78.8527 282.976 87.5665 287.464C78.8527 291.951 72.8877 301.025 72.8877 311.497C72.8877 326.421 84.9942 338.52 99.9279 338.52H163.359C178.293 338.52 190.4 326.421 190.4 311.497C190.4 301.025 184.435 291.951 175.721 287.464C184.435 282.976 190.4 273.902 190.4 263.43C190.4 252.958 184.435 243.884 175.721 239.396C184.435 234.908 190.4 225.834 190.4 215.362Z" fill="#FF76B7"/>
<path d="M190.4 215.362C190.4 209.597 188.586 204.257 185.51 199.87C176.326 206.514 173.685 220.255 181.775 233.226C182.026 233.624 182.281 234.02 182.543 234.408C187.4 229.522 190.403 222.793 190.403 215.362H190.4Z" fill="#141313"/>
<path d="M124.886 213.945C121.706 213.945 119.117 211.358 119.117 208.18C119.117 207.503 119.666 206.958 120.34 206.958C121.013 206.958 121.562 207.507 121.562 208.18C121.562 210.009 123.052 211.498 124.883 211.498C126.713 211.498 128.204 210.009 128.204 208.18C128.204 207.503 128.753 206.958 129.426 206.958C130.099 206.958 130.648 207.507 130.648 208.18C130.648 211.358 128.06 213.945 124.88 213.945H124.886Z" fill="#141313"/>
<path d="M138.398 213.945C135.218 213.945 132.629 211.358 132.629 208.18C132.629 207.503 133.178 206.958 133.851 206.958C134.525 206.958 135.074 207.507 135.074 208.18C135.074 210.009 136.564 211.498 138.395 211.498C140.225 211.498 141.715 210.009 141.715 208.18C141.715 207.503 142.264 206.958 142.938 206.958C143.611 206.958 144.16 207.507 144.16 208.18C144.16 211.358 141.571 213.945 138.391 213.945H138.398Z" fill="#141313"/>
<path d="M131.642 223.767C122.029 223.767 113.482 217.662 110.374 208.578C110.155 207.938 110.495 207.245 111.136 207.027C111.776 206.808 112.469 207.147 112.688 207.788C115.457 215.885 123.075 221.323 131.642 221.323C140.209 221.323 147.828 215.885 150.596 207.788C150.815 207.147 151.511 206.808 152.149 207.027C152.786 207.245 153.129 207.941 152.91 208.578C149.802 217.662 141.255 223.767 131.642 223.767Z" fill="#141313"/>
<path d="M269.164 399.597L303.051 384.552C304.006 384.128 303.715 382.703 302.669 382.69L182.052 381.054L269.164 399.597Z" fill="#141313"/>
<path d="M118.117 306.82V332.679C118.117 333.846 117.176 334.786 116.009 334.786H89.2921C87.0499 334.786 85.2293 336.606 85.2293 338.846V365.385C85.2293 366.551 84.288 367.492 83.1212 367.492H56.5647C54.3225 367.492 52.502 369.311 52.502 371.552V396.298C52.502 398.539 54.3225 400.358 56.5647 400.358H117.96V400.201H146.942C149.184 400.201 151.004 398.382 151.004 396.141V306.82C151.004 304.579 149.184 302.76 146.942 302.76H122.18C119.937 302.76 118.117 304.579 118.117 306.82Z" fill="#01A552"/>
<path d="M175.159 118.146C175.15 115.585 173.061 113.518 170.502 113.528L163.559 113.554V113.56C151.149 113.609 140.167 119.717 133.414 129.066L133.372 118.306C133.362 115.745 131.273 113.678 128.714 113.688L121.772 113.714C101.171 113.792 84.498 130.575 84.5764 151.175C84.6549 171.77 101.448 188.425 122.059 188.346L129.002 188.32C131.564 188.311 133.633 186.223 133.623 183.666L133.581 172.913C140.409 182.209 151.433 188.235 163.844 188.186L170.786 188.16C173.349 188.15 175.418 186.063 175.408 183.506L175.156 118.146H175.159Z" fill="#FF7300"/>
<path d="M133.488 172.785C135.799 175.964 138.6 178.76 141.78 181.069C138.747 176.398 135.645 168.983 133.488 157.215V172.785Z" fill="#141313"/>
<path d="M214.358 178.466C210.946 184.149 204.821 188.049 197.712 188.333C186.285 188.787 176.666 179.635 176.555 168.21C176.493 161.804 179.418 156.029 184.056 152.244C184.239 152.097 184.226 151.812 184.04 151.679C179.147 148.233 175.829 142.673 175.45 136.274C174.773 124.865 183.736 115.073 195.172 114.736C202.288 114.53 208.668 117.999 212.462 123.435C212.609 123.647 212.923 123.637 213.06 123.412C216.473 117.728 222.598 113.828 229.707 113.544C241.134 113.09 250.753 122.242 250.864 133.668C250.926 140.073 248.001 145.848 243.363 149.627C243.18 149.774 243.193 150.058 243.379 150.192C248.269 153.645 251.583 159.204 251.965 165.6C252.642 177.009 243.68 186.802 232.243 187.138C225.128 187.344 218.748 183.875 214.953 178.44C214.806 178.227 214.492 178.237 214.355 178.463H214.358V178.466Z" fill="#0061EE"/>
<path d="M64.2232 245.645L65.6614 243.015C66.119 242.176 67.3283 242.176 67.7859 243.015L69.224 245.645C71.1753 249.212 74.1137 252.148 77.6862 254.101L80.3173 255.538C81.1573 255.996 81.1573 257.204 80.3173 257.662L77.6862 259.099C74.117 261.049 71.1786 263.985 69.224 267.555L67.7859 270.185C67.3283 271.024 66.1222 271.024 65.6614 270.185L64.2232 267.555C62.2719 263.989 59.3336 261.052 55.7611 259.099L53.13 257.662C52.29 257.204 52.29 255.999 53.13 255.538L55.7611 254.101C59.3303 252.151 62.2687 249.215 64.2232 245.645Z" fill="white"/>
<path d="M272.717 147.115L268.615 145.724L267.222 141.625C267.098 141.256 266.575 141.256 266.451 141.625L265.059 145.724L260.957 147.115C260.587 147.24 260.587 147.762 260.957 147.886L265.059 149.278L266.451 153.377C266.575 153.746 267.098 153.746 267.222 153.377L268.615 149.278L272.717 147.886C273.086 147.762 273.086 147.24 272.717 147.115Z" fill="white"/>
<path d="M211.952 249.394C245.49 249.394 272.72 276.606 272.72 310.122V393.714C272.72 397.382 269.739 400.358 266.072 400.358H157.833C154.162 400.358 151.185 397.379 151.185 393.714V310.122C151.185 276.606 178.414 249.394 211.952 249.394Z" fill="#0040E9"/>
<path d="M211.952 249.394C178.391 249.394 151.185 276.583 151.185 310.122V358.069C188.707 361.469 228.314 336.452 246.909 294.29C250.818 285.425 253.537 276.387 255.142 267.405C244.127 256.286 228.847 249.394 211.952 249.394Z" fill="#0061EE"/>
<path d="M173.286 400.358C183.399 392.803 188.177 378.157 184.213 363.51C179.725 346.927 165.566 335.995 151.185 337.092V393.714C151.185 397.382 154.162 400.358 157.833 400.358H173.286Z" fill="#141313"/>
<path d="M219.893 276.966C217.007 276.966 214.418 275.149 213.451 272.445C213.225 271.811 213.555 271.116 214.189 270.887C214.824 270.658 215.52 270.991 215.749 271.625C216.37 273.363 218.036 274.529 219.896 274.529C221.756 274.529 223.423 273.359 224.044 271.625C224.269 270.991 224.969 270.661 225.603 270.887C226.237 271.112 226.567 271.811 226.342 272.445C225.374 275.149 222.786 276.966 219.9 276.966H219.893Z" fill="#141313"/>
<path d="M204.012 276.988C201.126 276.988 198.534 275.163 197.57 272.445C197.344 271.811 197.675 271.116 198.309 270.89C198.943 270.665 199.639 270.995 199.864 271.628C200.485 273.376 202.152 274.552 204.012 274.552C205.872 274.552 207.539 273.376 208.16 271.628C208.385 270.995 209.082 270.665 209.716 270.89C210.35 271.116 210.68 271.811 210.454 272.445C209.487 275.163 206.898 276.988 204.012 276.988Z" fill="#141313"/>
<path d="M211.981 286.885C206.35 286.885 200.774 285.612 195.727 283.155C195.122 282.861 194.871 282.133 195.165 281.529C195.459 280.924 196.188 280.673 196.793 280.967C202.15 283.57 208.141 284.753 214.122 284.383C218.675 284.103 223.048 282.963 227.118 280.996C227.722 280.702 228.451 280.957 228.745 281.561C229.04 282.166 228.785 282.894 228.18 283.188C223.823 285.295 219.143 286.513 214.273 286.814C213.508 286.859 212.746 286.885 211.981 286.885Z" fill="#141313"/>
<path d="M151.002 400.358C170.111 400.358 185.602 384.877 185.602 365.781C185.602 346.684 170.111 331.203 151.002 331.203C131.892 331.203 116.401 346.684 116.401 365.781C116.401 384.877 131.892 400.358 151.002 400.358Z" fill="#FB5500"/>
<path d="M181.987 350.373C176.319 339.01 164.575 331.2 151.005 331.2C131.894 331.2 116.404 346.682 116.404 365.777C116.404 374.665 119.761 382.769 125.278 388.897C129.609 390.363 134.247 391.157 139.071 391.157C162.078 391.157 180.862 373.088 181.99 350.373H181.987Z" fill="#FF7300"/>
<path d="M144.607 350.161C142.156 350.161 139.956 348.609 139.136 346.303C138.92 345.696 139.237 345.026 139.845 344.811C140.453 344.595 141.123 344.912 141.339 345.519C141.829 346.898 143.143 347.825 144.607 347.825C146.072 347.825 147.386 346.898 147.876 345.519C148.092 344.912 148.762 344.595 149.37 344.811C149.978 345.026 150.295 345.696 150.079 346.303C149.259 348.613 147.059 350.161 144.607 350.161Z" fill="#141313"/>
<path d="M157.714 350.161C155.263 350.161 153.063 348.609 152.242 346.303C152.027 345.696 152.344 345.026 152.952 344.811C153.56 344.595 154.23 344.912 154.445 345.519C154.936 346.898 156.25 347.825 157.714 347.825C159.178 347.825 160.492 346.898 160.982 345.519C161.198 344.912 161.868 344.595 162.476 344.811C163.084 345.026 163.401 345.696 163.185 346.303C162.365 348.613 160.165 350.161 157.714 350.161Z" fill="#141313"/>
<path d="M151.184 358.376C143.425 358.376 136.005 355.488 130.295 350.242C129.821 349.805 129.789 349.067 130.227 348.593C130.665 348.119 131.403 348.087 131.877 348.524C137.156 353.372 144.01 356.04 151.184 356.04C158.359 356.04 165.213 353.372 170.491 348.524C170.965 348.087 171.707 348.119 172.142 348.593C172.58 349.067 172.547 349.808 172.073 350.242C166.363 355.488 158.944 358.376 151.184 358.376Z" fill="#141313"/>
<path d="M213.705 159.57C207.733 159.57 202.098 157.264 197.839 153.083C197.388 152.639 197.382 151.91 197.826 151.46C198.271 151.009 199 151.002 199.451 151.447C203.278 155.206 208.338 157.277 213.705 157.277C219.072 157.277 224.131 155.206 227.959 151.447C228.41 151.002 229.139 151.009 229.583 151.46C230.028 151.91 230.021 152.639 229.57 153.083C225.311 157.267 219.676 159.57 213.705 159.57Z" fill="#141313"/>
<path d="M211.62 148.131C211.07 148.131 210.587 147.736 210.489 147.178C210.136 145.126 208.364 143.64 206.279 143.64C204.194 143.64 202.425 145.126 202.069 147.178C201.961 147.801 201.366 148.223 200.742 148.115C200.118 148.007 199.696 147.413 199.804 146.789C200.35 143.637 203.072 141.347 206.279 141.347C209.485 141.347 212.208 143.637 212.754 146.789C212.862 147.413 212.443 148.007 211.816 148.115C211.75 148.128 211.685 148.131 211.62 148.131Z" fill="#141313"/>
<path d="M215.791 148.131C215.725 148.131 215.66 148.125 215.595 148.115C214.97 148.007 214.549 147.413 214.656 146.789C215.202 143.637 217.925 141.347 221.131 141.347C224.338 141.347 227.06 143.637 227.606 146.789C227.714 147.413 227.296 148.007 226.668 148.115C226.044 148.223 225.449 147.805 225.341 147.178C224.988 145.126 223.217 143.64 221.131 143.64C219.046 143.64 217.278 145.126 216.922 147.178C216.827 147.736 216.34 148.131 215.791 148.131Z" fill="#141313"/>
<path d="M235.253 189.898C220.728 185.541 214.005 197.068 214.005 197.068C214.005 197.068 207.821 185.23 193.119 188.889C178.417 192.554 172.152 209.659 182.094 225.596C189.756 237.835 202.219 245.21 208.671 248.385C211.24 249.656 214.24 249.728 216.865 248.584C223.421 245.703 236.276 239.001 244.509 227.069C255.201 211.626 249.847 194.265 235.256 189.895H235.253V189.898Z" fill="#02863E"/>
<path d="M235.253 189.898C220.728 185.541 214.005 197.068 214.005 197.068C214.005 197.068 207.821 185.23 193.119 188.889C178.417 192.554 172.152 209.659 182.094 225.596C186.906 233.285 193.616 239.053 199.538 243.068C208.765 240.873 218.185 235.17 225.706 226.419C235.152 215.431 239.394 202.206 238.149 190.986C237.231 190.564 236.266 190.195 235.256 189.895H235.253V189.898Z" fill="#01A552"/>
<path d="M279.751 309.737C279.751 309.665 279.758 309.593 279.758 309.521C279.758 302.387 273.972 296.606 266.834 296.606C259.696 296.606 253.91 302.387 253.91 309.521C253.91 309.593 253.914 309.665 253.917 309.737C248.648 310.445 244.582 314.956 244.582 320.418C244.582 326.375 249.413 331.203 255.371 331.203H278.3C284.258 331.203 289.089 326.375 289.089 320.421C289.089 314.956 285.023 310.445 279.754 309.737H279.751Z" fill="white"/>
</svg>
