<svg width="230" height="210" viewBox="0 0 230 210" fill="none" xmlns="http://www.w3.org/2000/svg">
<path d="M123.473 208.096L58.6355 188.819C47.1732 185.41 40.6467 173.368 44.06 161.919L83.8606 28.4164C85.9091 21.5421 91.2393 16.1293 98.0878 13.9676L137.049 1.66298C145.499 -1.00623 154.727 1.73737 160.34 8.58763L186.214 40.1697C190.762 45.7204 192.258 53.1635 190.21 60.0379L150.409 193.54C146.996 204.987 134.937 211.505 123.473 208.096Z" fill="#EA651B"/>
<path d="M132.518 16.7905C131.691 19.2609 133.025 21.9331 135.495 22.7602C137.965 23.5873 140.638 22.2534 141.465 19.783" stroke="#413D45" stroke-width="3" stroke-miterlimit="10" stroke-linecap="round" stroke-linejoin="round"/>
<path d="M145.819 21.2373C144.992 23.7077 146.326 26.3799 148.797 27.207C151.267 28.0341 153.939 26.7002 154.766 24.2298" stroke="#413D45" stroke-width="3" stroke-miterlimit="10" stroke-linecap="round" stroke-linejoin="round"/>
<path d="M123.845 13.8901C123.907 23.0608 129.729 31.5864 138.911 34.6579C148.093 37.7294 157.873 34.4209 163.439 27.1327" stroke="#413D45" stroke-width="3" stroke-miterlimit="10" stroke-linecap="round" stroke-linejoin="round"/>
<path d="M195.073 145.969C214.285 145.969 229.86 130.394 229.86 111.182C229.86 91.9693 214.285 76.3945 195.073 76.3945C175.86 76.3945 160.286 91.9693 160.286 111.182C160.286 130.394 175.86 145.969 195.073 145.969Z" fill="#FFCE00"/>
<path d="M128.14 175.032C137.625 175.032 145.314 167.343 145.314 157.858C145.314 148.374 137.625 140.685 128.14 140.685C118.656 140.685 110.967 148.374 110.967 157.858C110.967 167.343 118.656 175.032 128.14 175.032Z" fill="#FF9E5C"/>
<path d="M30.3838 96.6504C47.1643 96.6504 60.7676 83.0471 60.7676 66.2666C60.7676 49.4861 47.1643 35.8828 30.3838 35.8828C13.6033 35.8828 0 49.4861 0 66.2666C0 83.0471 13.6033 96.6504 30.3838 96.6504Z" fill="#FEACD5"/>
</svg>
