<svg width="188" height="40" viewBox="0 0 188 40" fill="none" xmlns="http://www.w3.org/2000/svg">
<path d="M50.178 7.7688H53.3575V16.6513C54.6717 14.7212 56.4135 13.7718 58.5534 13.7718C61.4565 13.7718 63.1079 15.364 63.1079 18.5797V29.4533H59.9285V19.4072C59.9285 17.2018 59.1027 16.5886 57.5139 16.5886C56.5352 16.5886 55.5878 17.1704 54.7012 18.3341C53.8147 19.4977 53.3557 21.029 53.3557 22.9278V29.4516H50.1763V7.7688H50.178Z" fill="white"/>
<path d="M79.2468 22.6229H68.3351C68.3351 25.0425 69.7415 26.8803 72.156 26.8803C73.8683 26.8803 75.4259 25.8996 76.1908 24.276L78.9113 25.3474C77.352 28.3802 75.5493 29.6972 72.156 29.6972C67.0818 29.6972 64.9731 25.4083 64.9731 21.7345C64.9731 18.0588 67.0818 13.7717 72.156 13.7717C77.0773 13.7717 79.2468 17.7836 79.2468 21.2449V22.6229ZM68.3977 19.9576H75.8866C75.6119 18.0275 74.3273 16.5886 72.1578 16.5886C70.1083 16.5886 68.7645 17.9682 68.3977 19.9576Z" fill="white"/>
<path d="M104.196 13.7718C104.96 13.7718 105.724 13.986 106.549 14.3849C107.375 14.7839 107.956 15.2124 108.322 15.7333V7.7688H111.502V29.4533H108.322V27.6765C107.742 28.6868 106 29.6972 104.135 29.6972C99.6411 29.6972 97.2578 26.7567 97.2578 21.7345C97.2578 16.8342 99.6724 13.7718 104.196 13.7718ZM100.62 21.7345C100.62 23.2971 100.987 24.5531 101.72 25.5025C102.454 26.4205 103.401 26.8804 104.562 26.8804C105.724 26.8804 106.671 26.4205 107.405 25.5025C108.138 24.5531 108.505 23.2971 108.505 21.7345C108.505 20.1719 108.138 18.9159 107.405 17.9979C106.671 17.0485 105.724 16.5886 104.562 16.5886C103.401 16.5886 102.454 17.0485 101.72 17.9979C100.987 18.9177 100.62 20.1719 100.62 21.7345Z" fill="white"/>
<path d="M123.684 16.221L121.668 17.9978C120.934 17.0484 120.048 16.5886 118.979 16.5886C118.123 16.5886 117.451 17.139 117.451 18.1198C117.451 18.456 117.572 18.7939 117.849 19.0692C118.369 19.59 118.888 19.8357 120.203 20.3252C121.272 20.7241 121.731 20.8756 122.586 21.4592C123.808 22.1943 124.388 23.1124 124.512 24.7969C124.512 26.1748 124.023 27.3385 123.045 28.2879C122.066 29.2373 120.783 29.6972 119.163 29.6972C116.229 29.6972 114.151 27.7984 113.202 25.5616L115.891 24.0914C116.717 25.9606 117.847 26.8786 119.285 26.8786C120.66 26.8786 121.364 26.2044 121.364 24.8579C121.364 24.337 121.15 23.9694 120.569 23.6332C120.295 23.4503 120.02 23.297 119.775 23.2047C119.316 22.9904 118.186 22.5915 117.696 22.3773C115.495 21.4592 114.395 20.0499 114.395 18.1511C114.395 16.9265 114.854 15.8848 115.74 15.0573C116.627 14.2003 117.757 13.7717 119.133 13.7717C120.995 13.7717 122.706 14.7211 123.684 16.221Z" fill="white"/>
<path d="M133.878 29.6989C132.075 29.6989 130.516 28.8418 129.751 27.7392V35.7019H126.572V14.0156H129.751V15.7925C130.332 14.7821 132.074 13.7717 133.939 13.7717C138.433 13.7717 140.816 16.7122 140.816 21.7345C140.818 26.6347 138.403 29.6989 133.878 29.6989ZM137.454 21.7345C137.454 20.1719 137.087 18.9159 136.354 17.9978C135.62 17.0484 134.673 16.5886 133.511 16.5886C132.35 16.5886 131.403 17.0484 130.669 17.9978C129.936 18.9159 129.569 20.1719 129.569 21.7345C129.569 23.297 129.936 24.553 130.669 25.5024C131.403 26.4205 132.35 26.8803 133.511 26.8803C134.673 26.8803 135.62 26.4205 136.354 25.5024C137.089 24.553 137.454 23.297 137.454 21.7345Z" fill="white"/>
<path d="M172.31 25.4414C171.057 28.2896 168.856 29.6989 165.647 29.6989C163.324 29.6989 161.52 28.9324 160.267 27.4326C159.013 25.9013 158.401 24.0025 158.401 21.7362C158.401 19.4698 159.013 17.571 160.267 16.0694C161.52 14.5382 163.323 13.7717 165.647 13.7717C168.856 13.7717 171.057 15.181 172.31 18.0292L169.468 19.2538C168.673 17.477 167.389 16.5886 165.647 16.5886C163.05 16.5886 161.765 18.6406 161.765 21.7345C161.765 24.8283 163.048 26.8803 165.647 26.8803C167.389 26.8803 168.673 25.9919 169.468 24.2151L172.31 25.4414Z" fill="white"/>
<path d="M187.717 22.6229H176.805C176.805 25.0425 178.212 26.8803 180.626 26.8803C182.339 26.8803 183.896 25.8996 184.661 24.276L187.382 25.3474C185.822 28.3802 184.02 29.6972 180.626 29.6972C175.552 29.6972 173.443 25.4083 173.443 21.7345C173.443 18.0588 175.552 13.7717 180.626 13.7717C185.548 13.7717 187.717 17.7836 187.717 21.2449V22.6229ZM176.866 19.9576H184.355C184.08 18.0275 182.796 16.5886 180.626 16.5886C178.577 16.5886 177.233 17.9682 176.866 19.9576Z" fill="white"/>
<path d="M87.9684 13.7874C88.7333 13.7874 89.4981 14.0016 90.3239 14.4005C91.1496 14.7995 91.7302 15.228 92.097 15.7489V14.0173H95.2782V29.4794H92.6254L92.097 27.7008C91.5164 28.7129 89.7728 29.7232 87.9075 29.7232C83.4122 29.7232 81.0254 26.781 81.0254 21.7553C81.0254 16.8515 83.4417 13.7874 87.9684 13.7874ZM84.3908 21.7553C84.3908 23.3179 84.7576 24.5756 85.4912 25.525C86.2248 26.4448 87.174 26.9047 88.3352 26.9047C89.4981 26.9047 90.4455 26.4448 91.1791 25.525C91.9127 24.5756 92.2795 23.3179 92.2795 21.7553C92.2795 20.1927 91.9127 18.935 91.1791 18.017C90.4455 17.0676 89.4964 16.6077 88.3352 16.6077C87.1722 16.6077 86.2248 17.0676 85.4912 18.017C84.7576 18.935 84.3908 20.1927 84.3908 21.7553Z" fill="white"/>
<path d="M149.256 13.7874C150.021 13.7874 150.786 14.0016 151.611 14.4005C152.437 14.7995 153.018 15.228 153.384 15.7489V14.0173H156.566V29.4794H153.913L153.384 27.7008C152.804 28.7129 151.06 29.7232 149.195 29.7232C144.7 29.7232 142.313 26.781 142.313 21.7553C142.313 16.8515 144.729 13.7874 149.256 13.7874ZM145.676 21.7553C145.676 23.3179 146.043 24.5756 146.777 25.525C147.51 26.4448 148.46 26.9047 149.621 26.9047C150.784 26.9047 151.731 26.4448 152.465 25.525C153.198 24.5756 153.565 23.3179 153.565 21.7553C153.565 20.1927 153.198 18.935 152.465 18.017C151.731 17.0676 150.782 16.6077 149.621 16.6077C148.458 16.6077 147.51 17.0676 146.777 18.017C146.043 18.935 145.676 20.1927 145.676 21.7553Z" fill="white"/>
<path d="M40.3214 19.7654C40.7908 26.3188 37.7539 30.0363 35.9216 32.6371C33.0725 35.6473 29.4636 39.7515 20.2938 39.9797C12.5164 40.288 8.69023 36.8597 5.48469 33.8826C1.3022 29.275 0.210511 26.5488 0.000169716 19.7654C-0.0189522 15.609 1.5786 11.456 4.37736 7.80476C8.30258 2.25646 14.5346 0.399481 20.2938 0.0127549C26.3363 -0.222416 31.1411 2.83133 34.4249 6.12198C38.623 10.5589 39.9129 14.3686 40.3214 19.7654Z" fill="#FF7E1D"/>
</svg>
