<svg width="179" height="179" viewBox="0 0 179 179" fill="none" xmlns="http://www.w3.org/2000/svg">
<g clip-path="url(#clip0_1687_11358)">
<mask id="mask0_1687_11358" style="mask-type:luminance" maskUnits="userSpaceOnUse" x="0" y="0" width="179" height="179">
<path d="M89.1 178.2C138.309 178.2 178.2 138.309 178.2 89.1C178.2 39.8914 138.309 0 89.1 0C39.8914 0 0 39.8914 0 89.1C0 138.309 39.8914 178.2 89.1 178.2Z" fill="white"/>
</mask>
<g mask="url(#mask0_1687_11358)">
<path d="M50.8437 178.2C43.1264 178.2 35.6297 175.838 28.5529 171.176C21.7282 166.682 15.6069 160.267 10.3675 152.098C5.11772 143.929 0.991359 134.406 -1.88554 123.791C-4.88844 112.777 -6.40039 101.112 -6.40039 89.1C-6.40039 77.0884 -4.87794 65.4233 -1.88554 54.4092C0.991359 43.794 5.11772 34.2603 10.3675 26.0916C15.6174 17.9229 21.7387 11.5076 28.5529 7.02426C35.6297 2.36242 43.1264 0 50.8437 0H127.355C135.072 0 142.569 2.36242 149.645 7.02426C156.47 11.5181 162.591 17.9334 167.831 26.1021C173.07 34.2708 177.207 43.794 180.084 54.4092C183.076 65.4233 184.599 77.0989 184.599 89.1C184.599 101.101 183.076 112.777 180.084 123.791C177.196 134.406 173.07 143.929 167.831 152.098C162.581 160.267 156.46 166.682 149.645 171.176C142.569 175.838 135.072 178.2 127.355 178.2H50.8437Z" fill="#FFCE00"/>
</g>
<mask id="mask1_1687_11358" style="mask-type:luminance" maskUnits="userSpaceOnUse" x="0" y="0" width="179" height="179">
<path d="M89.1 178.2C138.309 178.2 178.2 138.309 178.2 89.1C178.2 39.8914 138.309 0 89.1 0C39.8914 0 0 39.8914 0 89.1C0 138.309 39.8914 178.2 89.1 178.2Z" fill="white"/>
</mask>
<g mask="url(#mask1_1687_11358)">
<path d="M93.0133 0.105469C138.149 0.105469 174.795 36.0037 174.795 80.2178V178.704H11.2207V80.2178C11.2207 36.0037 47.8671 0.105469 93.0133 0.105469Z" fill="#FFCE00"/>
<path d="M135.107 55.4504V94.3333H95.5628C93.6311 94.3333 92.0537 95.8739 92.0537 97.7837V136.667H52.5091C50.5775 136.667 49 138.207 49 140.117V179H178V80.0253C178 70.17 176.197 60.7262 172.903 52H138.606C136.685 52.0106 135.107 53.5511 135.107 55.4504Z" fill="#FF7300"/>
<path d="M178 80.0182C178 70.1654 175.468 60.724 170.841 52H155C163.953 60.4076 172.77 75.8725 178 96V80.0182Z" fill="#FC5500"/>
</g>
<path d="M57.7187 136.447C73.5796 136.447 86.4374 123.589 86.4374 107.728C86.4374 91.8676 73.5796 79.0098 57.7187 79.0098C41.8578 79.0098 29 91.8676 29 107.728C29 123.589 41.8578 136.447 57.7187 136.447Z" fill="#0061EF"/>
<path d="M57.7185 78.9971C51.006 78.9971 44.8402 81.2981 39.9457 85.1502C37.5429 89.6633 36.1699 94.8121 36.1699 100.291C36.1699 118.077 50.5865 132.493 68.372 132.493C69.8467 132.493 71.3087 132.392 72.7453 132.201C80.9579 127.154 86.4372 118.077 86.4372 107.728C86.4372 91.8626 73.5843 78.9971 57.7185 78.9971Z" fill="#00A4FF"/>
<path d="M70.1663 95.9345C67.9034 95.9345 65.882 94.5106 65.1193 92.3876C64.9413 91.8917 65.1955 91.3451 65.6913 91.1671C66.1871 90.9891 66.7338 91.2434 66.9118 91.7392C67.3949 93.0995 68.7043 94.0148 70.1536 94.0148C71.6029 94.0148 72.9123 93.0995 73.3954 91.7392C73.5734 91.2434 74.1201 90.9891 74.6159 91.1671C75.1117 91.3451 75.3659 91.8917 75.188 92.3876C74.4506 94.5106 72.4165 95.9345 70.1663 95.9345Z" fill="#1A1919"/>
<path d="M57.7332 95.9467C55.4703 95.9467 53.4489 94.5101 52.6861 92.387C52.5081 91.8912 52.7751 91.3446 53.2709 91.1666C53.7667 90.9886 54.3134 91.2556 54.4914 91.7514C54.9745 93.1244 56.2839 94.0397 57.7332 94.0397C59.1825 94.0397 60.4919 93.1117 60.975 91.7514C61.153 91.2556 61.6996 91.0013 62.1955 91.1666C62.6913 91.3446 62.9455 91.8912 62.7803 92.387C62.0175 94.5228 59.9961 95.9467 57.7332 95.9467Z" fill="#1A1919"/>
<path d="M63.9739 103.7C59.5624 103.7 55.2019 102.696 51.2481 100.776C50.7777 100.547 50.5743 99.9753 50.8032 99.505C51.032 99.0346 51.6041 98.8312 52.0745 99.06C56.2698 101.094 60.9609 102.022 65.6393 101.742C69.1989 101.526 72.6314 100.636 75.8097 99.0854C76.2801 98.8566 76.8521 99.06 77.081 99.5304C77.3098 100.001 77.1064 100.573 76.636 100.802C73.2289 102.454 69.5549 103.408 65.741 103.637C65.1689 103.688 64.5714 103.7 63.9739 103.7Z" fill="#1A1919"/>
<path d="M87.1722 72.8232L86.2112 74.5819C85.9036 75.1394 85.0964 75.1394 84.7888 74.5819L83.8278 72.8232C82.5207 70.4398 80.5602 68.4793 78.1768 67.1722L76.4181 66.2112C75.8606 65.9036 75.8606 65.0964 76.4181 64.7888L78.1768 63.8278C80.5602 62.5207 82.5207 60.5602 83.8278 58.1768L84.7888 56.4181C85.0964 55.8606 85.9036 55.8606 86.2112 56.4181L87.1722 58.1768C88.4793 60.5602 90.4398 62.5207 92.8232 63.8278L94.5819 64.7888C95.1394 65.0964 95.1394 65.9036 94.5819 66.2112L92.8232 67.1722C90.4398 68.4793 88.4793 70.4398 87.1722 72.8232Z" fill="white"/>
</g>
<defs>
<clipPath id="clip0_1687_11358">
<rect width="178.2" height="178.2" fill="white"/>
</clipPath>
</defs>
</svg>
