<svg width="138" height="48" viewBox="0 0 138 48" fill="none" xmlns="http://www.w3.org/2000/svg">
<rect opacity="0.6" y="3" width="42" height="42" rx="21" fill="white"/>
<path fill-rule="evenodd" clip-rule="evenodd" d="M23.2217 37.1392C23.2473 37.216 23.662 38.5932 23.7439 39.6939C23.8361 38.5625 23.3548 37.518 23.2217 37.1392ZM23.2934 41.0609C23.3753 41.0456 23.4418 41.0148 23.4982 40.9637L23.2934 41.0609Z" fill="white"/>
<path fill-rule="evenodd" clip-rule="evenodd" d="M25.2498 32.6636C24.8965 32.1926 24.5023 31.6652 24.277 31.1635C23.9955 30.5286 24.0467 29.7095 23.719 29.1309C23.3145 28.4142 22.1677 27.9482 21.7786 27.1905C21.4458 26.5454 21.84 26.1205 22.1626 25.6904C22.3981 25.373 22.5875 25.0658 22.8128 24.8661C22.9664 25.076 23.0585 25.286 23.3401 25.3064C23.5142 25.3218 23.6934 25.0658 23.7804 25.0709C23.8111 25.0709 23.9955 25.2655 24.103 25.3371C24.8812 25.8491 25.2037 24.8712 25.516 24.2466C25.6594 23.965 26.0485 22.9104 26.3966 22.895C26.6936 22.8848 26.8165 23.2329 27.0417 23.2176C28.1527 19.5723 29.3764 16.0396 29.5709 11.4727C28.9105 14.2579 28.3319 17.1045 27.1595 19.3316C26.9905 19.0347 27.2107 18.7121 27.308 18.451C28.0503 16.357 28.7057 14.1094 29.105 11.6826C28.2244 14.3347 27.4052 17.0431 26.2226 19.3931C26.1407 19.3777 26.1816 19.2395 26.0485 19.2753C25.7976 19.8999 25.4546 20.4273 25.1065 20.9546C25.3368 20.4682 24.8658 19.4289 24.5484 19.3367C24.0262 19.1832 23.5193 19.5211 23.1353 19.1883C23.0637 19.3828 22.9664 19.3214 22.8435 19.3623C22.8025 19.3777 22.8077 19.4699 22.7821 19.4801C22.6336 19.5569 22.4032 19.5671 22.3418 19.7463C22.2189 20.0996 22.5773 20.4119 22.4595 20.9239C21.9885 20.3812 21.41 19.9153 21.0157 19.2753C20.4014 18.2821 20.0276 17.0943 19.4286 16.0652C20.9133 14.8825 21.8349 12.3687 20.9594 9.94191C20.2426 7.96055 18.3278 6.10718 15.5427 6.29149C12.5732 6.49117 10.259 9.29682 10.9502 12.7373C11.5185 15.5583 13.9965 17.7496 17.5701 17.0328C18.0667 18.6149 18.9115 19.8641 19.8638 20.9495C20.1914 21.3232 20.5857 21.6202 20.8929 22.0093C20.5345 22.255 19.8228 22.1936 19.7153 22.6288C19.6641 22.8284 19.8075 23.1817 19.8638 23.4531C20.043 24.349 19.9457 25.3525 20.0123 26.2178C20.0481 26.6785 20.2375 27.1393 20.2785 27.6308C20.3194 28.1633 20.3041 28.7111 20.3655 29.2487C20.5959 31.2659 21.3639 32.8018 22.1319 34.3122C22.3264 34.6961 22.5158 35.0904 22.6592 35.4897C22.8128 35.9147 22.8793 36.3806 23.0432 36.8157C23.0893 36.9386 23.1865 37.041 23.2172 37.1383C23.2172 37.1383 23.2172 37.1383 23.2172 37.1434C23.2428 37.2202 23.6575 38.5974 23.7395 39.6982C23.7804 40.2614 23.7343 40.758 23.4988 40.9628L25.7823 39.8774C25.644 39.6009 25.2754 39.56 25.0194 39.4064C24.9119 39.0224 24.8863 38.5616 24.9017 38.0547C26.3608 38.408 27.907 38.0035 28.5521 37.1741C28.5367 36.7389 28.9821 36.5598 29.1409 36.2014C27.5537 35.4027 26.2994 34.0715 25.2498 32.6636ZM20.7495 9.76272C21.6404 11.954 20.9492 14.8569 19.3364 15.886C19.1214 15.502 19.4286 15.1487 19.5412 14.7699C19.6027 14.56 19.6539 14.3501 19.6897 14.1248C19.7255 13.9149 19.6795 13.6333 19.746 13.4183C19.8126 13.2083 20.258 12.9626 20.4526 12.7424C20.9748 12.1434 21.4304 10.9147 20.6266 10.0955C20.4372 8.90259 19.5259 8.19094 18.2715 8.09366C18.1077 8.08342 17.9183 8.13462 17.7442 8.09366C17.5496 8.04759 17.3141 7.766 17.0991 7.59192C16.4591 7.08506 15.6655 6.72156 14.7133 6.59356C17.5291 5.83583 19.9201 7.71992 20.7495 9.76272ZM17.6571 13.6179C17.6418 13.7306 17.7083 13.7613 17.6879 13.8842C17.3346 14.0019 16.9711 14.4627 16.5717 14.176C16.541 14.2989 16.3465 14.2425 16.4233 14.3808C16.2441 14.4473 16.029 14.4781 15.8038 14.4985C15.1075 13.1469 14.5392 11.6622 14.1859 9.96751C14.9078 9.69616 15.6809 9.48113 16.5973 9.40945C17.1298 10.5563 17.7339 11.9386 17.8927 13.2647C17.8824 13.3056 17.8415 13.2647 17.8312 13.2339C17.6315 13.28 17.8824 13.5975 17.6571 13.6179ZM16.07 14.9747C16.1212 14.8928 16.2492 14.8774 16.367 14.8569C16.4898 15.63 17.1656 15.845 17.396 16.5055C16.838 16.229 16.4386 15.5327 16.07 14.9747ZM17.2476 16.7666C15.7628 16.8588 14.8003 16.014 14.1552 15.2665C14.7593 15.2716 15.2611 15.1795 15.7167 15.031C16.1878 15.6454 16.5308 16.398 17.2476 16.7666ZM17.5138 8.38037C17.7954 8.52885 17.9131 8.84628 18.1333 9.05619C17.8056 9.06131 17.2322 9.05619 16.8073 9.05619C16.7561 8.86675 16.5615 8.68244 16.5717 8.52885C16.7151 8.53397 16.8073 8.48789 16.925 8.46741C16.8738 8.92307 17.652 8.89235 17.5138 8.38037ZM20.6317 10.4385C21.3178 11.1502 20.5754 12.2817 20.0737 12.7066C19.9662 12.6349 19.915 12.5121 19.7204 12.5325C20.1351 11.9489 20.5806 11.3908 20.6317 10.4385ZM19.6897 12.1178C19.4747 11.1246 19.147 10.244 18.7169 9.47089C19.4081 9.59377 19.9918 9.82416 20.4218 10.2081C20.4116 11.0734 20.0276 11.5751 19.6897 12.1178ZM20.043 9.61424C19.6283 9.37873 19.06 9.19442 18.4814 9.1125C18.3176 8.86163 18.1486 8.621 17.9541 8.40597C19.1675 8.37013 20.1812 8.78484 20.427 9.81904C20.299 9.8344 20.1863 9.69616 20.043 9.61424ZM16.3926 8.26262C16.0751 7.82743 15.8038 7.34105 15.3942 6.99803C16.1366 7.14138 16.8175 7.59704 17.2783 8.11414C16.9404 8.12438 16.6588 8.18582 16.3926 8.26262ZM16.2185 8.6466C16.2543 8.83604 16.4079 8.90771 16.4233 9.11762C15.5375 9.17394 14.8413 9.41969 14.1296 9.64496C14.191 9.46577 14.4163 9.40945 14.5699 9.32242C15.0307 9.06643 15.5734 8.8258 16.157 8.6466H16.2185ZM17.0121 9.44017C17.0172 9.41457 17.0018 9.41457 16.9813 9.40945C17.3244 9.27634 17.9387 9.37361 18.3074 9.40945C18.6862 9.87023 19.0395 10.7304 19.2494 11.529C19.3211 11.8106 19.4542 12.1588 19.4235 12.3533C19.3723 12.7373 18.6299 13.1623 18.3944 13.3261C18.2306 13.2135 18.2562 12.9933 18.2203 12.8244C17.9336 11.6519 17.4728 10.459 17.0121 9.44017ZM18.5429 15.4713C18.6401 15.5686 18.6197 15.7836 18.6913 15.9116C18.6504 16.0396 18.5429 16.0959 18.4866 16.2085C18.4507 16.0294 18.5838 15.758 18.5429 15.4713ZM18.7784 16.1778C18.7579 16.27 18.8091 16.2853 18.8091 16.3519C18.6197 16.4645 18.4046 16.5567 18.2203 16.6744C18.2869 16.5106 18.5941 16.3314 18.7784 16.1778ZM18.7784 14.176C18.7118 14.1453 18.6709 14.089 18.6606 14.0019C18.7067 13.9661 18.7784 13.9661 18.8091 13.9149C18.8808 13.9712 18.7733 14.0941 18.7784 14.176ZM18.4814 13.7101C18.8091 13.4183 19.1726 13.1623 19.4542 12.8295C19.5208 12.8909 19.4644 13.0752 19.4849 13.1827C19.1521 13.3568 18.8757 13.5923 18.4814 13.7101ZM19.0702 13.7971C19.1777 13.705 19.3416 13.6794 19.4235 13.5616C19.4542 13.5565 19.4798 13.5667 19.4849 13.5923C19.5617 14.1811 19.2289 14.8364 19.1009 15.2972C18.9115 14.9132 19.0548 14.2528 19.0702 13.7971ZM14.1859 6.91099C14.3805 6.90075 14.5545 6.86491 14.7747 6.88027C15.2918 7.26426 15.6809 7.77624 16.0086 8.34965C15.2969 8.58005 14.6313 8.85651 14.0682 9.23026C13.9402 8.53397 13.9043 7.45369 14.1859 6.91099ZM15.4812 14.56C14.8105 14.6009 14.1142 14.6061 13.5101 14.5037C13.1466 13.9456 12.6858 13.065 12.4503 12.21C12.3018 11.6622 12.1585 11.1399 12.5681 10.8584C12.6705 10.884 12.7421 10.9403 12.8906 10.9147C13.0237 10.8481 13.1108 10.6945 13.0391 10.5051C13.3156 10.3669 13.5869 10.2286 13.8634 10.0955C14.2576 11.7236 14.7952 13.2186 15.4812 14.56ZM13.8019 7.02875C13.6995 7.31033 13.6227 7.96055 13.6535 8.55957C13.6688 8.85139 13.7917 9.2149 13.7405 9.38385C13.6842 9.58865 13.0903 9.90095 12.9469 10.0289C12.6807 10.2696 12.481 10.5665 12.2097 10.6792C12.1585 8.87699 12.6858 7.65336 13.8019 7.02875ZM12.9776 7.40761C12.3889 8.04759 11.9793 8.96915 11.9178 10.1467C11.9076 10.3617 11.9895 10.6331 11.9486 10.8532C11.9076 11.0631 11.5799 11.2833 11.4468 11.4727C11.2625 11.7338 11.1499 11.954 11.0936 12.2356C10.7864 10.0289 11.7899 8.41109 12.9776 7.40761ZM11.539 11.826C11.4519 12.1741 11.2164 12.6247 11.2728 13.2083C11.0577 12.7322 11.3291 12.1485 11.539 11.826ZM11.5083 13.2083C11.4519 12.5633 11.7694 12.0359 12.01 11.5905C12.2404 12.6656 12.6193 13.5872 13.1005 14.4166C12.5425 14.2886 12.0714 14.0736 11.6875 13.7664C12.1278 13.7254 11.9332 12.9165 11.5083 13.2083ZM12.5988 14.56C12.9111 14.6726 13.2951 14.7238 13.5101 14.944C12.7882 14.9337 12.1431 14.5856 11.7438 14.1504C11.9742 14.2784 12.2558 14.4371 12.5988 14.56ZM16.6895 17.0636C14.2371 17.2427 12.7524 15.8758 11.8052 14.4729C12.1022 14.734 12.4247 14.9644 12.9213 15.118C13.1568 15.1897 13.4435 15.1692 13.6842 15.2665C13.9146 15.3535 14.1296 15.671 14.3344 15.8553C15.0512 16.5055 16.1622 17.1967 17.5138 16.8844C17.2476 16.9868 16.9711 17.0431 16.6895 17.0636ZM17.5394 14.6777C17.3192 14.6726 17.3909 14.9593 17.3039 15.0873C17.1554 14.9696 17.0684 14.7904 17.0069 14.5856C17.3295 14.5497 17.5701 14.4217 17.8619 14.3501C17.9131 14.647 18.077 14.8416 18.2152 15.0566C18.2408 15.6505 18.1947 16.1778 18.0104 16.5567C17.6315 16.1471 17.5394 15.3894 17.5394 14.6777ZM20.217 19.9153C19.2545 19.1627 18.804 17.893 18.1282 16.8536C18.3278 16.6898 18.6043 16.6028 18.8347 16.4697C19.1726 17.7496 19.6897 18.8504 20.2478 19.9153C20.2887 19.9511 20.2529 19.9306 20.217 19.9153ZM23.294 41.0601C23.376 41.0447 23.4425 41.014 23.4988 40.9628L23.294 41.0601Z" fill="#2D2C2B"/>
<rect opacity="0.6" x="48" y="3" width="42" height="42" rx="21" fill="white"/>
<g clip-path="url(#clip0_878_1501)">
<path d="M52.2656 24.605V26.0879C63.7607 25.4051 55.2118 25.0505 52.2656 24.605Z" fill="#2D2C2B"/>
<path d="M52.2656 27.0559V28.5125L52.3612 28.5361C61.1187 27.7297 58.6051 27.4351 52.2656 27.0559Z" fill="#2D2C2B"/>
<path d="M52.2656 14.1555V18.9445C59.473 18.7008 59.5085 18.2935 55.771 17.7988L56.4431 16.9842C61.0577 17.6915 60.7653 18.849 57.4512 19.4291C58.5614 19.8192 62.4975 20.5411 57.739 21.9695C58.5131 22.1795 62.88 23.2588 57.4512 24.2226C58.3109 24.6099 62.8754 25.1664 57.6434 26.5712C58.9976 26.793 62.4793 27.534 57.8838 29.0161C59.6215 29.1979 59.8182 29.258 60.2845 30.0708V33.1868H62.3973V14.1555H52.2656Z" fill="#2D2C2B"/>
<path d="M52.2656 22.3523V23.838C54.4277 23.4134 64.2971 23.2415 52.2656 22.3523Z" fill="#2D2C2B"/>
<path d="M52.2656 19.8193V21.3932C59.0222 21.0304 61.3054 20.5604 52.2656 19.8193Z" fill="#2D2C2B"/>
<path d="M64.8786 19.231H63.7256V19.0046H66.2765V19.231H65.1244V22.3061H64.8786V19.231Z" fill="#2D2C2B"/>
<path d="M66.9014 19.0049H67.1473V20.5333H69.2638V19.0049H69.5097V22.3063H69.2638V20.7588H67.1473V22.3063H66.9014V19.0049Z" fill="#2D2C2B"/>
<path d="M70.3691 19.0049H72.7215V19.2313H70.615V20.5288H72.5093V20.7552H70.615V22.0808H72.7461V22.3072H70.3701V19.0058L70.3691 19.0049Z" fill="#2D2C2B"/>
<path d="M63.8964 24.2048H64.9938L65.6467 26.3697L66.3699 24.1948H67.2642L67.9864 26.3697L68.6394 24.2048H69.7158L68.4627 27.9736H67.5574L66.8079 25.8196L66.0529 27.9736H65.1477L63.8945 24.2048H63.8964Z" fill="#2D2C2B"/>
<path d="M69.7178 26.0439V26.0293C69.7178 24.9046 70.5238 24.0154 71.664 24.0154C72.99 24.0154 73.6029 24.9901 73.6029 26.1221C73.6029 26.2076 73.6029 26.3076 73.5956 26.3994H71.0146C71.1212 26.8195 71.4281 27.0322 71.8488 27.0322C72.1767 27.0322 72.4262 26.9113 72.7049 26.6413L73.4535 27.2604C73.0829 27.7296 72.5483 28.0433 71.7851 28.0433C70.5729 28.0433 69.7178 27.2323 69.7178 26.043V26.0439ZM72.3415 25.7093C72.2915 25.2819 72.0355 25.0119 71.6649 25.0119C71.2942 25.0119 71.0656 25.2819 70.9946 25.7093H72.3415Z" fill="#2D2C2B"/>
<path d="M74.3389 24.2043H76.2614C76.7322 24.2043 77.0646 24.3216 77.2841 24.5362C77.4335 24.6908 77.5245 24.889 77.5245 25.1454V25.1563C77.5245 25.5891 77.2777 25.8455 76.9462 25.9901C77.4016 26.1392 77.6903 26.3965 77.6903 26.9039V26.9148C77.6903 27.5567 77.1657 27.9468 76.2714 27.9468H74.3389V24.2053V24.2043ZM76.5018 25.3591C76.5018 25.1509 76.3361 25.0381 76.031 25.0381H75.3507V25.6955H76.0037C76.3197 25.6955 76.5009 25.5882 76.5009 25.3691V25.3582L76.5018 25.3591ZM76.143 26.4229H75.3507V27.1121H76.1539C76.4754 27.1121 76.6521 26.9893 76.6521 26.7702V26.7593C76.6521 26.5565 76.4909 26.422 76.143 26.422V26.4229Z" fill="#2D2C2B"/>
<path d="M78.4912 24.2043H80.4137C80.8846 24.2043 81.217 24.3216 81.4365 24.5362C81.5858 24.6908 81.6769 24.889 81.6769 25.1454V25.1563C81.6769 25.5891 81.431 25.8455 81.0986 25.9901C81.5539 26.1392 81.8426 26.3965 81.8426 26.9039V26.9148C81.8426 27.5567 81.3181 27.9468 80.4237 27.9468H78.4912V24.2053V24.2043ZM80.6542 25.3591C80.6542 25.1509 80.4884 25.0381 80.1833 25.0381H79.503V25.6955H80.156C80.4711 25.6955 80.6532 25.5882 80.6532 25.3691V25.3582L80.6542 25.3591ZM80.2953 26.4229H79.503V27.1121H80.3063C80.6277 27.1121 80.8044 26.9893 80.8044 26.7702V26.7593C80.8044 26.5565 80.6441 26.422 80.2953 26.422V26.4229Z" fill="#2D2C2B"/>
<path d="M83.2726 26.5456L81.8428 24.2043H83.0258L83.7963 25.5673L84.5722 24.2043H85.7343L84.3099 26.5293V27.9459H83.2717V26.5456H83.2726Z" fill="#2D2C2B"/>
<path d="M65.5926 29.5454H65.8285L67.3685 32.8705H67.0989L66.6782 31.9458H64.7265L64.3058 32.8705H64.0508L65.5908 29.5454H65.5926ZM66.5753 31.7239L65.7065 29.8136L64.8322 31.7239H66.5753Z" fill="#2D2C2B"/>
<path d="M67.3506 29.5687H67.6247L68.6638 32.5073L69.6328 29.5596H69.8214L70.7904 32.5073L71.8295 29.5687H72.0845L70.8851 32.8937H70.6865L69.7175 30.026L68.7494 32.8937H68.5509L67.3506 29.5687Z" fill="#2D2C2B"/>
<path d="M73.6855 29.5471H73.9213L75.4614 32.8722H75.1927L74.7719 31.9475H72.8203L72.3995 32.8722H72.1445L73.6845 29.5471H73.6855ZM74.6681 31.7257L73.7993 29.8153L72.925 31.7257H74.6681Z" fill="#2D2C2B"/>
<path d="M76.0292 29.5685H77.4181C77.8242 29.5685 78.1503 29.6958 78.3488 29.894C78.5046 30.0495 78.5993 30.2714 78.5993 30.5069V30.516C78.5993 31.0679 78.1885 31.3843 77.6303 31.4588L78.7213 32.8691H78.4098L77.3561 31.5016H76.2742V32.8691H76.0283V29.5676L76.0292 29.5685ZM77.3898 31.2806C77.9426 31.2806 78.3534 31.0024 78.3534 30.526V30.516C78.3534 30.0732 78.0037 29.794 77.4035 29.794H76.2742V31.2797H77.3889L77.3898 31.2806Z" fill="#2D2C2B"/>
<path d="M79.3311 29.5691H80.4321C81.4712 29.5691 82.1898 30.281 82.1898 31.2103V31.2194C82.1898 32.1486 81.4712 32.8705 80.4321 32.8705H79.3311V29.5691ZM79.5769 29.7955V32.6441H80.4321C81.3538 32.6441 81.9348 32.0168 81.9348 31.2294V31.2194C81.9348 30.4365 81.3538 29.7946 80.4321 29.7946H79.5769V29.7955Z" fill="#2D2C2B"/>
<path d="M82.6425 32.3897L82.8028 32.206C83.1671 32.5406 83.5022 32.6961 83.9885 32.6961C84.4749 32.6961 84.8246 32.4179 84.8246 32.0406V32.0306C84.8246 31.6814 84.6406 31.4787 83.8893 31.3277C83.096 31.1677 82.7737 30.8986 82.7737 30.3985V30.3894C82.7737 29.8993 83.2226 29.522 83.8365 29.522C84.3182 29.522 84.6352 29.6538 84.9703 29.9229L84.8146 30.1166C84.5031 29.8475 84.1907 29.7438 83.8274 29.7438C83.341 29.7438 83.0195 30.0221 83.0195 30.3667V30.3767C83.0195 30.7258 83.199 30.9377 83.9831 31.0986C84.7481 31.2541 85.0705 31.5277 85.0705 32.0087V32.0178C85.0705 32.5506 84.6124 32.9189 83.974 32.9189C83.4449 32.9189 83.0387 32.7443 82.6416 32.3906L82.6425 32.3897Z" fill="#2D2C2B"/>
</g>
<rect opacity="0.6" x="96" y="3" width="42" height="42" rx="21" fill="white"/>
<path d="M104.93 24.0893C104.93 23.7285 104.93 23.3675 104.93 23.0067C104.937 22.957 104.948 22.9078 104.951 22.8579C105.011 21.7379 105.225 20.6498 105.662 19.6141C106.415 17.8301 107.625 16.4709 109.42 15.6898C110.828 15.0767 112.277 14.9409 113.749 15.4587C114.358 15.6728 114.959 15.9101 115.56 16.1473C116.224 16.4095 116.883 16.437 117.551 16.1652C117.972 15.9941 118.4 15.8425 118.822 15.6759C119.986 15.2163 121.178 14.9635 122.441 15.1151C123.859 15.2855 125.122 15.7931 126.19 16.7536C126.557 17.0845 126.88 17.4561 127.154 17.8548C126.858 18.0854 126.552 18.2935 126.281 18.5411C124.302 20.3505 123.671 22.5665 124.403 25.1338C124.852 26.7104 125.909 27.8382 127.309 28.6549C127.497 28.7643 127.702 28.8441 127.899 28.9375V29.0081C127.816 29.2393 127.737 29.4713 127.65 29.701C127.119 31.1193 126.381 32.4238 125.481 33.6399C125.007 34.2803 124.522 34.9089 123.926 35.4443C122.941 36.3285 121.81 36.6397 120.527 36.2956C120.095 36.1796 119.678 35.9995 119.266 35.8221C118.567 35.5213 117.848 35.3314 117.084 35.3144C116.243 35.2958 115.446 35.4792 114.672 35.7978C114.206 35.9896 113.734 36.1711 113.256 36.3292C113.017 36.4081 112.758 36.4243 112.508 36.4688H112.061C111.945 36.449 111.829 36.4323 111.715 36.409C111.081 36.281 110.554 35.9517 110.076 35.5338C109.473 35.0066 108.991 34.3737 108.503 33.7446C107.279 32.1689 106.373 30.4283 105.763 28.5308C105.35 27.2472 105.07 25.9368 104.972 24.5901C104.96 24.423 104.944 24.2561 104.93 24.089L104.93 24.0893Z" fill="#2D2C2B"/>
<path d="M122.017 8.25C122.208 9.96878 121.624 11.4435 120.559 12.749C119.744 13.749 118.691 14.3948 117.429 14.6852C117.119 14.7568 116.802 14.7787 116.483 14.7445C116.394 14.7349 116.351 14.7064 116.337 14.6057C116.261 14.0554 116.324 13.5155 116.473 12.9883C117.011 11.0874 118.17 9.69671 119.939 8.81908C120.519 8.53172 121.127 8.33214 121.774 8.26812C121.793 8.26624 121.811 8.25635 121.829 8.25024C121.892 8.25024 121.954 8.25024 122.017 8.25024V8.25Z" fill="#2D2C2B"/>
<defs>
<clipPath id="clip0_878_1501">
<rect width="33.4688" height="19.0312" fill="white" transform="translate(52.2656 14.1562)"/>
</clipPath>
</defs>
</svg>
