<svg id="Layer_1" data-name="Layer 1" xmlns="http://www.w3.org/2000/svg" xmlns:xlink="http://www.w3.org/1999/xlink" viewBox="0 0 570 570"><defs><style>.cls-1,.cls-5{fill:none;}.cls-2{fill:#ffce00;}.cls-3{clip-path:url(#clip-path);}.cls-4{fill:#ff7e1d;}.cls-5{stroke:#413d45;stroke-linecap:round;stroke-linejoin:round;stroke-width:9.85px;}</style><clipPath id="clip-path"><rect class="cls-1" width="570" height="570"/></clipPath></defs><title>visual-dotcom_category_page_hero_desktop-meditation-202000806-kh</title><rect class="cls-2" width="570" height="570"/><g class="cls-3"><path class="cls-4" d="M673.42,502.21c9,126.13-49.53,197.7-84.87,247.76-55,57.94-124.58,136.94-301.46,141.35-150,5.91-223.83-60.07-285.64-117.38-80.69-88.68-101.76-141.18-105.8-271.73-.38-80,30.45-159.95,84.44-230.22,75.7-106.83,195.92-142.57,307-150,116.55-4.52,209.26,54.26,272.59,117.58,81,85.41,105.86,158.74,113.74,262.65"/><path class="cls-5" d="M232.67,182.55a22.17,22.17,0,0,0,41.78,0"/><path class="cls-5" d="M295.32,182.55a22.17,22.17,0,0,0,41.77,0"/><path class="cls-5" d="M188.94,199.16a142,142,0,0,0,192.12,0"/></g></svg>